<svg width="417" height="217" fill="none" xmlns="http://www.w3.org/2000/svg"><g clip-path="url(#clip0)"><path fill="#fff" d="M0 0h417v217H0z"/><mask id="a" maskUnits="userSpaceOnUse" x="3" y="-2" width="82" height="215"><path d="M39.5 93c-5.5-18-12-67.5-12-93.5C43.834-1.5 77-2.9 79-.5s2.834 63.333 3 93.5l-3 36.5c-.166 7.833-.4 24.2 0 27 .4 2.8 2.5 12 4 18 .334 2.333 1.5 7.5 1 10-.477 2.386-5.9 7.26-9.5 7.5-7.5.5-22 15.5-28 18-11.167 1.833-34.8 5.2-40 0-5.2-5.2-2-11.5 2-12 16-2 30-18.5 35-23.5 4-4 7.5-12.5 7.5-18l-4.5-28c-4-14.5-3.703-24.712-7-35.5z" fill="#fff"/></mask><g mask="url(#a)"><path fill="#497CFF" d="M-2 94h119v151H-2z"/><path fill="#0253BC" d="M-2 94h119v151H-2z"/><path fill="#3081EB" d="M-2 94h119v151H-2z"/></g><path d="M39.5 93c-5.5-18-12-67.5-12-93.5C43.834-1.5 77-2.9 79-.5s2.834 63.333 3 93.5l-3 36.5c-.166 7.833-.4 24.2 0 27 .4 2.8 2.5 12 4 18 .334 2.333 1.5 7.5 1 10-.477 2.386-5.9 7.26-9.5 7.5-7.5.5-22 15.5-28 18-11.167 1.833-34.8 5.2-40 0-5.2-5.2-2-11.5 2-12 16-2 30-18.5 35-23.5 4-4 7.5-12.5 7.5-18l-4.5-28c-4-14.5-3.703-24.712-7-35.5z" stroke="#D8D8D8"/><path d="M371.43 39.273h-5.612V48h1.581v-7.402h4.031v-1.325zm3.175 8.855c1.917 0 3.136-1.351 3.136-3.375 0-2.029-1.219-3.384-3.136-3.384-1.918 0-3.137 1.355-3.137 3.384 0 2.024 1.219 3.375 3.137 3.375zm.008-1.236c-1.061 0-1.581-.946-1.581-2.143 0-1.198.52-2.157 1.581-2.157 1.044 0 1.564.96 1.564 2.157s-.52 2.143-1.564 2.143zM378.599 48h.477c1.406 0 2.041-.989 2.143-3.17l.103-2.11h1.879V48h1.491v-6.545h-4.772l-.115 2.897c-.073 1.837-.311 2.378-.989 2.378h-.226l.009 1.27zm9.134-4.415v-2.13h-1.487V48h2.974c1.666 0 2.625-.92 2.629-2.207-.004-1.321-.963-2.208-2.629-2.208h-1.487zm0 1.266h1.487c.669 0 1.151.396 1.151.963 0 .541-.482.92-1.151.92h-1.487v-1.883zm8.409 5.373h1.547v-2.096c1.926 0 3.251-1.364 3.251-3.375 0-2.016-1.325-3.384-3.251-3.384v-2.096h-1.547v2.096c-1.926 0-3.252 1.368-3.252 3.384 0 2.011 1.326 3.375 3.252 3.375v2.096zm0-3.34c-1.091 0-1.675-.964-1.675-2.131 0-1.168.575-2.14 1.675-2.14v4.27zm1.547 0v-4.27c1.099 0 1.67.971 1.67 2.139 0 1.167-.571 2.13-1.67 2.13zm6.04-3.299v-2.13h-1.487V48h2.974c1.666 0 2.625-.92 2.63-2.207-.005-1.321-.964-2.208-2.63-2.208h-1.487zm4.93 4.415h1.543v-6.545h-1.543V48zm-4.93-3.15h1.487c.669 0 1.151.397 1.151.964 0 .541-.482.92-1.151.92h-1.487v-1.883z" fill="#D8D8D8"/><path d="M320.595 116h3.533c1.998 0 2.979-1.018 2.979-2.378 0-1.321-.938-2.096-1.867-2.143v-.086c.852-.2 1.526-.796 1.526-1.857 0-1.3-.938-2.263-2.83-2.263h-3.341V116zm1.581-1.321v-2.557h1.743c.976 0 1.581.597 1.581 1.377 0 .694-.477 1.18-1.624 1.18h-1.7zm0-3.695v-2.407h1.598c.929 0 1.411.49 1.411 1.163 0 .767-.623 1.244-1.445 1.244h-1.564zm7.725.601v-2.13h-1.487V116h2.974c1.666 0 2.625-.92 2.629-2.207-.004-1.321-.963-2.208-2.629-2.208h-1.487zm4.93 4.415h1.543v-6.545h-1.543V116zm-4.93-3.149h1.487c.669 0 1.151.396 1.151.963 0 .541-.482.92-1.151.92h-1.487v-1.883zm10.919 3.277c1.644 0 2.693-.976 2.804-2.365h-1.475c-.132.703-.639 1.108-1.317 1.108-.963 0-1.585-.806-1.585-2.144 0-1.321.635-2.113 1.585-2.113.742 0 1.198.477 1.317 1.108h1.475c-.107-1.419-1.215-2.353-2.813-2.353-1.918 0-3.128 1.385-3.128 3.384 0 1.981 1.181 3.375 3.137 3.375zm6.925 0c1.918 0 3.137-1.351 3.137-3.375 0-2.029-1.219-3.384-3.137-3.384-1.917 0-3.136 1.355-3.136 3.384 0 2.024 1.219 3.375 3.136 3.375zm.009-1.236c-1.061 0-1.581-.946-1.581-2.143 0-1.198.52-2.157 1.581-2.157 1.044 0 1.564.959 1.564 2.157 0 1.197-.52 2.143-1.564 2.143zm4.437 1.108h1.543v-2.467h.754l1.794 2.467h1.866l-2.45-3.332 2.425-3.213h-1.858l-1.969 2.642h-.562v-2.642h-1.543V116zm8.319-2.088v-4.457h-1.487V116h1.59l2.612-4.462V116h1.491v-6.545h-1.585l-2.621 4.457zm8.688 2.216c1.526 0 2.574-.746 2.847-1.884l-1.441-.162c-.208.554-.72.844-1.385.844-.997 0-1.657-.656-1.67-1.777h4.56v-.473c0-2.297-1.381-3.307-2.992-3.307-1.875 0-3.098 1.377-3.098 3.397 0 2.054 1.206 3.362 3.179 3.362zm-1.645-4.019c.047-.835.665-1.538 1.585-1.538.887 0 1.483.648 1.492 1.538h-3.077zm10.324-2.654h-1.487V116h1.487v-2.646h2.536V116h1.483v-6.545h-1.483v2.633h-2.536v-2.633zm8.435 6.673c1.917 0 3.136-1.351 3.136-3.375 0-2.029-1.219-3.384-3.136-3.384-1.918 0-3.137 1.355-3.137 3.384 0 2.024 1.219 3.375 3.137 3.375zm.008-1.236c-1.061 0-1.581-.946-1.581-2.143 0-1.198.52-2.157 1.581-2.157 1.044 0 1.564.959 1.564 2.157 0 1.197-.52 2.143-1.564 2.143zm7.293 1.236c1.644 0 2.693-.976 2.804-2.365h-1.475c-.132.703-.639 1.108-1.317 1.108-.963 0-1.585-.806-1.585-2.144 0-1.321.635-2.113 1.585-2.113.742 0 1.198.477 1.317 1.108h1.475c-.107-1.419-1.215-2.353-2.813-2.353-1.918 0-3.128 1.385-3.128 3.384 0 1.981 1.181 3.375 3.137 3.375zm4.07-.128h1.543v-2.467h.754l1.794 2.467h1.867l-2.451-3.332 2.425-3.213h-1.858l-1.969 2.642h-.562v-2.642h-1.543V116zm8.319-2.088v-4.457h-1.487V116h1.59l2.612-4.462V116h1.491v-6.545h-1.585l-2.621 4.457z" fill="#497CFF"/><path d="M320.595 116h3.533c1.998 0 2.979-1.018 2.979-2.378 0-1.321-.938-2.096-1.867-2.143v-.086c.852-.2 1.526-.796 1.526-1.857 0-1.3-.938-2.263-2.83-2.263h-3.341V116zm1.581-1.321v-2.557h1.743c.976 0 1.581.597 1.581 1.377 0 .694-.477 1.18-1.624 1.18h-1.7zm0-3.695v-2.407h1.598c.929 0 1.411.49 1.411 1.163 0 .767-.623 1.244-1.445 1.244h-1.564zm7.725.601v-2.13h-1.487V116h2.974c1.666 0 2.625-.92 2.629-2.207-.004-1.321-.963-2.208-2.629-2.208h-1.487zm4.93 4.415h1.543v-6.545h-1.543V116zm-4.93-3.149h1.487c.669 0 1.151.396 1.151.963 0 .541-.482.92-1.151.92h-1.487v-1.883zm10.919 3.277c1.644 0 2.693-.976 2.804-2.365h-1.475c-.132.703-.639 1.108-1.317 1.108-.963 0-1.585-.806-1.585-2.144 0-1.321.635-2.113 1.585-2.113.742 0 1.198.477 1.317 1.108h1.475c-.107-1.419-1.215-2.353-2.813-2.353-1.918 0-3.128 1.385-3.128 3.384 0 1.981 1.181 3.375 3.137 3.375zm6.925 0c1.918 0 3.137-1.351 3.137-3.375 0-2.029-1.219-3.384-3.137-3.384-1.917 0-3.136 1.355-3.136 3.384 0 2.024 1.219 3.375 3.136 3.375zm.009-1.236c-1.061 0-1.581-.946-1.581-2.143 0-1.198.52-2.157 1.581-2.157 1.044 0 1.564.959 1.564 2.157 0 1.197-.52 2.143-1.564 2.143zm4.437 1.108h1.543v-2.467h.754l1.794 2.467h1.866l-2.45-3.332 2.425-3.213h-1.858l-1.969 2.642h-.562v-2.642h-1.543V116zm8.319-2.088v-4.457h-1.487V116h1.59l2.612-4.462V116h1.491v-6.545h-1.585l-2.621 4.457zm8.688 2.216c1.526 0 2.574-.746 2.847-1.884l-1.441-.162c-.208.554-.72.844-1.385.844-.997 0-1.657-.656-1.67-1.777h4.56v-.473c0-2.297-1.381-3.307-2.992-3.307-1.875 0-3.098 1.377-3.098 3.397 0 2.054 1.206 3.362 3.179 3.362zm-1.645-4.019c.047-.835.665-1.538 1.585-1.538.887 0 1.483.648 1.492 1.538h-3.077zm10.324-2.654h-1.487V116h1.487v-2.646h2.536V116h1.483v-6.545h-1.483v2.633h-2.536v-2.633zm8.435 6.673c1.917 0 3.136-1.351 3.136-3.375 0-2.029-1.219-3.384-3.136-3.384-1.918 0-3.137 1.355-3.137 3.384 0 2.024 1.219 3.375 3.137 3.375zm.008-1.236c-1.061 0-1.581-.946-1.581-2.143 0-1.198.52-2.157 1.581-2.157 1.044 0 1.564.959 1.564 2.157 0 1.197-.52 2.143-1.564 2.143zm7.293 1.236c1.644 0 2.693-.976 2.804-2.365h-1.475c-.132.703-.639 1.108-1.317 1.108-.963 0-1.585-.806-1.585-2.144 0-1.321.635-2.113 1.585-2.113.742 0 1.198.477 1.317 1.108h1.475c-.107-1.419-1.215-2.353-2.813-2.353-1.918 0-3.128 1.385-3.128 3.384 0 1.981 1.181 3.375 3.137 3.375zm4.07-.128h1.543v-2.467h.754l1.794 2.467h1.867l-2.451-3.332 2.425-3.213h-1.858l-1.969 2.642h-.562v-2.642h-1.543V116zm8.319-2.088v-4.457h-1.487V116h1.59l2.612-4.462V116h1.491v-6.545h-1.585l-2.621 4.457z" fill="#0253BC"/><path d="M320.595 116h3.533c1.998 0 2.979-1.018 2.979-2.378 0-1.321-.938-2.096-1.867-2.143v-.086c.852-.2 1.526-.796 1.526-1.857 0-1.3-.938-2.263-2.83-2.263h-3.341V116zm1.581-1.321v-2.557h1.743c.976 0 1.581.597 1.581 1.377 0 .694-.477 1.18-1.624 1.18h-1.7zm0-3.695v-2.407h1.598c.929 0 1.411.49 1.411 1.163 0 .767-.623 1.244-1.445 1.244h-1.564zm7.725.601v-2.13h-1.487V116h2.974c1.666 0 2.625-.92 2.629-2.207-.004-1.321-.963-2.208-2.629-2.208h-1.487zm4.93 4.415h1.543v-6.545h-1.543V116zm-4.93-3.149h1.487c.669 0 1.151.396 1.151.963 0 .541-.482.92-1.151.92h-1.487v-1.883zm10.919 3.277c1.644 0 2.693-.976 2.804-2.365h-1.475c-.132.703-.639 1.108-1.317 1.108-.963 0-1.585-.806-1.585-2.144 0-1.321.635-2.113 1.585-2.113.742 0 1.198.477 1.317 1.108h1.475c-.107-1.419-1.215-2.353-2.813-2.353-1.918 0-3.128 1.385-3.128 3.384 0 1.981 1.181 3.375 3.137 3.375zm6.925 0c1.918 0 3.137-1.351 3.137-3.375 0-2.029-1.219-3.384-3.137-3.384-1.917 0-3.136 1.355-3.136 3.384 0 2.024 1.219 3.375 3.136 3.375zm.009-1.236c-1.061 0-1.581-.946-1.581-2.143 0-1.198.52-2.157 1.581-2.157 1.044 0 1.564.959 1.564 2.157 0 1.197-.52 2.143-1.564 2.143zm4.437 1.108h1.543v-2.467h.754l1.794 2.467h1.866l-2.45-3.332 2.425-3.213h-1.858l-1.969 2.642h-.562v-2.642h-1.543V116zm8.319-2.088v-4.457h-1.487V116h1.59l2.612-4.462V116h1.491v-6.545h-1.585l-2.621 4.457zm8.688 2.216c1.526 0 2.574-.746 2.847-1.884l-1.441-.162c-.208.554-.72.844-1.385.844-.997 0-1.657-.656-1.67-1.777h4.56v-.473c0-2.297-1.381-3.307-2.992-3.307-1.875 0-3.098 1.377-3.098 3.397 0 2.054 1.206 3.362 3.179 3.362zm-1.645-4.019c.047-.835.665-1.538 1.585-1.538.887 0 1.483.648 1.492 1.538h-3.077zm10.324-2.654h-1.487V116h1.487v-2.646h2.536V116h1.483v-6.545h-1.483v2.633h-2.536v-2.633zm8.435 6.673c1.917 0 3.136-1.351 3.136-3.375 0-2.029-1.219-3.384-3.136-3.384-1.918 0-3.137 1.355-3.137 3.384 0 2.024 1.219 3.375 3.137 3.375zm.008-1.236c-1.061 0-1.581-.946-1.581-2.143 0-1.198.52-2.157 1.581-2.157 1.044 0 1.564.959 1.564 2.157 0 1.197-.52 2.143-1.564 2.143zm7.293 1.236c1.644 0 2.693-.976 2.804-2.365h-1.475c-.132.703-.639 1.108-1.317 1.108-.963 0-1.585-.806-1.585-2.144 0-1.321.635-2.113 1.585-2.113.742 0 1.198.477 1.317 1.108h1.475c-.107-1.419-1.215-2.353-2.813-2.353-1.918 0-3.128 1.385-3.128 3.384 0 1.981 1.181 3.375 3.137 3.375zm4.07-.128h1.543v-2.467h.754l1.794 2.467h1.867l-2.451-3.332 2.425-3.213h-1.858l-1.969 2.642h-.562v-2.642h-1.543V116zm8.319-2.088v-4.457h-1.487V116h1.59l2.612-4.462V116h1.491v-6.545h-1.585l-2.621 4.457z" fill="#3081EB"/><path d="M328.1 141.217c-.268-1.939-1.759-3.064-3.694-3.064-2.28 0-3.997 1.662-3.997 4.483 0 2.817 1.696 4.483 3.997 4.483 2.075 0 3.452-1.342 3.694-3.008l-1.593-.009c-.201 1.023-1.036 1.598-2.08 1.598-1.415 0-2.429-1.061-2.429-3.064 0-1.968 1.006-3.064 2.433-3.064 1.062 0 1.893.601 2.076 1.645h1.593zm1.38 8.238h1.543v-3.486h.064c.243.477.75 1.146 1.875 1.146 1.542 0 2.697-1.223 2.697-3.379 0-2.182-1.189-3.367-2.702-3.367-1.154 0-1.636.695-1.87 1.168h-.09v-1.082h-1.517v9zm1.513-5.728c0-1.27.545-2.092 1.538-2.092 1.027 0 1.556.874 1.556 2.092 0 1.228-.537 2.122-1.556 2.122-.984 0-1.538-.852-1.538-2.122zm8.885 3.401c1.525 0 2.574-.746 2.846-1.884l-1.44-.162c-.209.554-.72.844-1.385.844-.997 0-1.658-.656-1.67-1.777h4.559v-.473c0-2.297-1.38-3.307-2.991-3.307-1.875 0-3.098 1.377-3.098 3.397 0 2.054 1.206 3.362 3.179 3.362zm-1.645-4.019c.047-.835.665-1.538 1.585-1.538.887 0 1.483.648 1.492 1.538h-3.077zm5.281 5.792h1.517V147h4.283v1.901h1.491v-3.171h-1.014v-5.275h-4.73l-.188 2.292c-.123 1.466-.285 2.553-.839 2.983h-.52v3.171zm2.105-3.171c.413-.609.567-1.598.678-2.983l.102-1.048h1.917v4.031h-2.697zm7.825-5.275h-1.487V147h1.487v-2.646h2.535V147h1.483v-6.545h-1.483v2.633h-2.535v-2.633zm7.066 4.457v-4.457h-1.487V147h1.59l2.612-4.462V147h1.491v-6.545h-1.585l-2.621 4.457zm8.688 2.216c1.526 0 2.574-.746 2.847-1.884l-1.441-.162c-.208.554-.72.844-1.385.844-.997 0-1.657-.656-1.67-1.777h4.56v-.473c0-2.297-1.381-3.307-2.992-3.307-1.875 0-3.098 1.377-3.098 3.397 0 2.054 1.206 3.362 3.179 3.362zm-1.645-4.019c.047-.835.665-1.538 1.585-1.538.887 0 1.483.648 1.492 1.538h-3.077zm10.324-2.654h-1.487V147h1.487v-2.646h2.536V147h1.483v-6.545h-1.483v2.633h-2.536v-2.633zm8.435 6.673c1.917 0 3.136-1.351 3.136-3.375 0-2.029-1.219-3.384-3.136-3.384-1.918 0-3.137 1.355-3.137 3.384 0 2.024 1.219 3.375 3.137 3.375zm.008-1.236c-1.061 0-1.581-.946-1.581-2.143 0-1.198.52-2.157 1.581-2.157 1.044 0 1.564.959 1.564 2.157 0 1.197-.52 2.143-1.564 2.143zm7.293 1.236c1.644 0 2.693-.976 2.804-2.365h-1.475c-.132.703-.639 1.108-1.317 1.108-.963 0-1.585-.806-1.585-2.144 0-1.321.635-2.113 1.585-2.113.742 0 1.198.477 1.317 1.108h1.475c-.107-1.419-1.215-2.353-2.813-2.353-1.918 0-3.128 1.385-3.128 3.384 0 1.981 1.181 3.375 3.137 3.375zm4.07-.128h1.543v-2.467h.754l1.794 2.467h1.867l-2.451-3.332 2.425-3.213h-1.858l-1.969 2.642h-.562v-2.642h-1.543V147zm8.319-2.088v-4.457h-1.487V147h1.59l2.612-4.462V147h1.491v-6.545h-1.585l-2.621 4.457zM354.007 169h1.948l-3.597-4.747 3.448-3.98h-1.948l-3.102 3.588h-.396v-3.588h-1.581V169h1.581v-3.814h.775l2.872 3.814zm5.328.128c1.918 0 3.137-1.351 3.137-3.375 0-2.029-1.219-3.384-3.137-3.384-1.917 0-3.136 1.355-3.136 3.384 0 2.024 1.219 3.375 3.136 3.375zm.009-1.236c-1.061 0-1.581-.946-1.581-2.143 0-1.198.52-2.157 1.581-2.157 1.044 0 1.564.959 1.564 2.157 0 1.197-.52 2.143-1.564 2.143zm4.437 3.563h1.543v-3.486h.063c.243.477.75 1.146 1.875 1.146 1.543 0 2.698-1.223 2.698-3.379 0-2.182-1.189-3.367-2.702-3.367-1.155 0-1.636.695-1.871 1.168h-.089v-1.082h-1.517v9zm1.513-5.728c0-1.27.545-2.092 1.538-2.092 1.027 0 1.555.874 1.555 2.092 0 1.228-.537 2.122-1.555 2.122-.984 0-1.538-.852-1.538-2.122zm8.842 3.401c1.918 0 3.136-1.351 3.136-3.375 0-2.029-1.218-3.384-3.136-3.384-1.918 0-3.136 1.355-3.136 3.384 0 2.024 1.218 3.375 3.136 3.375zm.009-1.236c-1.062 0-1.581-.946-1.581-2.143 0-1.198.519-2.157 1.581-2.157 1.044 0 1.563.959 1.563 2.157 0 1.197-.519 2.143-1.563 2.143zm3.727-4.172h2.118V169h1.492v-5.28h2.117v-1.265h-5.727v1.265zm8.443.865v-2.13h-1.487V169h2.974c1.666 0 2.625-.92 2.629-2.207-.004-1.321-.963-2.208-2.629-2.208h-1.487zm4.93 4.415h1.543v-6.545h-1.543V169zm-4.93-3.149h1.487c.669 0 1.151.396 1.151.963 0 .541-.482.92-1.151.92h-1.487v-1.883zm8.064-3.396V169h8.578v-6.545h-1.488v5.275h-2.058v-5.275h-1.487v5.275h-2.058v-5.275h-1.487zm11.623 4.457v-4.457h-1.487V169h1.59l2.612-4.462V169h1.491v-6.545h-1.585l-2.621 4.457zM343.458 196h1.581v-3.707h4.044V196h1.586v-8.727h-1.586v3.694h-4.044v-3.694h-1.581V196zm11.76.128c1.525 0 2.574-.746 2.846-1.884l-1.44-.162c-.209.554-.72.844-1.385.844-.997 0-1.658-.656-1.67-1.777h4.559v-.473c0-2.297-1.38-3.307-2.991-3.307-1.875 0-3.098 1.377-3.098 3.397 0 2.054 1.206 3.362 3.179 3.362zm-1.645-4.019c.047-.835.665-1.538 1.585-1.538.886 0 1.483.648 1.492 1.538h-3.077zm5.86 3.891h3.171c1.534 0 2.412-.695 2.412-1.777 0-.916-.712-1.555-1.739-1.645.874-.162 1.419-.626 1.419-1.364 0-1.103-.967-1.759-2.514-1.759h-2.749V196zm1.445-1.214v-1.624h1.726c.566 0 .912.328.912.869 0 .469-.346.755-.912.755h-1.726zm0-2.621v-1.475h1.304c.643 0 1.035.273 1.035.721 0 .468-.379.754-1.005.754h-1.334zm8.308 3.963c1.526 0 2.574-.746 2.847-1.884l-1.44-.162c-.209.554-.72.844-1.385.844-.997 0-1.658-.656-1.671-1.777h4.56v-.473c0-2.297-1.381-3.307-2.992-3.307-1.875 0-3.098 1.377-3.098 3.397 0 2.054 1.206 3.362 3.179 3.362zm-1.644-4.019c.046-.835.664-1.538 1.585-1.538.886 0 1.483.648 1.491 1.538h-3.076zm5.28 5.792h1.517V196h4.283v1.901h1.492v-3.171h-1.015v-5.275h-4.73l-.187 2.292c-.124 1.466-.286 2.553-.84 2.983h-.52v3.171zm2.106-3.171c.413-.609.566-1.598.677-2.983l.102-1.048h1.918v4.031h-2.697zm7.824-.818v-4.457h-1.487V196h1.59l2.612-4.462V196h1.491v-6.545h-1.585l-2.621 4.457zm9.558.294l-1.892-4.751h-1.875V196h1.487v-4.411l1.743 4.411h1.078l1.802-4.457V196h1.475v-6.545h-1.875l-1.943 4.751zm5.373 1.794h1.543v-2.467h.754l1.794 2.467h1.867l-2.451-3.332 2.425-3.213h-1.858l-1.969 2.642h-.562v-2.642h-1.543V196zm8.319-2.088v-4.457h-1.487V196h1.59l2.612-4.462V196h1.491v-6.545h-1.585l-2.621 4.457z" fill="#D8D8D8"/><path d="M2 1h415" stroke="#D8D8D8" stroke-width="2"/><path d="M2 94h415.5M2 131h415.5M2 155h415.5M1 175h415.5" stroke="#D8D8D8"/></g><defs><clipPath id="clip0"><path fill="#fff" d="M0 0h417v217H0z"/></clipPath></defs></svg>