<svg xmlns="http://www.w3.org/2000/svg" viewBox="0 0 27 23">
<path fill="#3081EB" d="M24.1,7.4c-0.1,0-0.2,0-0.3,0.1l-7.3,2.7L16,10c1-1.5,1.8-3.1,1.8-4.2c0-2.9-2.5-5.3-5.5-5.3
	c-3.1,0-5.5,2.4-5.5,5.3c0,0.5,0.2,1.1,0.4,1.8L0.9,9.8C0.3,10,0,10.5,0,11.1v10.7c0,0.4,0.3,0.7,0.7,0.7c0.1,0,0.2,0,0.3,0l7.3-2.7
	l7.4,2.6c0.6,0.2,1.2,0.2,1.7,0l6.5-2.3c0.6-0.2,0.9-0.7,0.9-1.2V8.1C24.8,7.7,24.4,7.4,24.1,7.4z M7.6,18.5l-6.2,2.3l0-9.7l6.3-2.2
	V18.5z M12.4,1.9c2.2,0,4.1,1.8,4.1,3.9c0,1.2-1.7,3.8-4.1,6.7C9.9,9.6,8.3,6.9,8.3,5.8C8.3,3.6,10.1,1.9,12.4,1.9z M8.9,18.5v-8.2
	c1,1.5,2.2,2.9,2.9,3.7c0.1,0.2,0.3,0.2,0.6,0.2c0.2,0,0.4,0,0.5-0.2c0.6-0.6,1.5-1.7,2.3-2.9l0.6,0.2V21L8.9,18.5z M17.2,21v-9.6
	L23.4,9l0,9.8L17.2,21z"/>
</svg>
