<svg xmlns="http://www.w3.org/2000/svg" viewBox="0 0 27 23"><path fill="#3081EB" d="M24.1 7.4c-.1 0-.2 0-.3.1l-7.3 2.7-.5-.2c1-1.5 1.8-3.1 1.8-4.2 0-2.9-2.5-5.3-5.5-5.3-3.1 0-5.5 2.4-5.5 5.3 0 .5.2 1.1.4 1.8L.9 9.8c-.6.2-.9.7-.9 1.3v10.7c0 .4.3.7.7.7H1l7.3-2.7 7.4 2.6c.6.2 1.2.2 1.7 0l6.5-2.3c.6-.2.9-.7.9-1.2V8.1c0-.4-.4-.7-.7-.7zM7.6 18.5l-6.2 2.3v-9.7l6.3-2.2v9.6zm4.8-16.6c2.2 0 4.1 1.8 4.1 3.9 0 1.2-1.7 3.8-4.1 6.7-2.5-2.9-4.1-5.6-4.1-6.7 0-2.2 1.8-3.9 4.1-3.9zM8.9 18.5v-8.2c1 1.5 2.2 2.9 2.9 3.7.1.2.3.2.6.2.2 0 .4 0 .5-.2.6-.6 1.5-1.7 2.3-2.9l.6.2V21l-6.9-2.5zm8.3 2.5v-9.6L23.4 9v9.8L17.2 21z"/></svg>