<svg xmlns="http://www.w3.org/2000/svg" viewBox="0 0 27 23"><path fill="#3081EB" d="M26.7 16.2h-1v-4.6c0-.7-.3-1.4-.8-1.9l-3.5-3.5c-.5-.5-1.2-.8-1.9-.8h-1.9v-2c0-1.1-1-2-2.1-2H2.1c-1.2 0-2.1.9-2.1 2v12.3c0 1.1.9 1.9 2.1 1.9h.7v.7c0 1.9 1.5 3.4 3.4 3.4s3.4-1.5 3.4-3.4c0-.2 0-.4-.1-.7h8.2v.7c0 1.9 1.5 3.4 3.4 3.4s3.4-1.5 3.4-3.4c0-.2 0-.4-.1-.7h2.4c.2 0 .3-.1.3-.3v-.7c-.1-.2-.3-.4-.4-.4zm-7.3-9.4c.3 0 .7.2.9.4l3.5 3.5s0 .1.1.1h-6.4v-4h1.9zM6.1 20.3c-1.1 0-2-.9-2-2s.9-2 2-2 2 .9 2 2-.9 2-2 2zm2.6-4.1c-.6-.8-1.6-1.4-2.7-1.4s-2 .6-2.6 1.4H2.1c-.4 0-.7-.3-.7-.6V3.4c0-.3.3-.6.7-.6h13.4c.4 0 .8.3.8.6v12.9H8.7zm12.2 4.1c-1.1 0-2-.9-2-2s.9-2 2-2 2 .9 2 2c.1 1.1-.9 2-2 2zm0-5.4c-1.1 0-2.1.5-2.7 1.4h-.7v-4.1h6.8v4.1h-.7c-.6-.9-1.6-1.4-2.7-1.4z"/></svg>