<svg xmlns="http://www.w3.org/2000/svg" viewBox="0 0 27 23">
<path fill="#3081EB" d="M26.7,16.2h-1v-4.6c0-0.7-0.3-1.4-0.8-1.9l-3.5-3.5c-0.5-0.5-1.2-0.8-1.9-0.8h-1.9V3.4c0-1.1-1-2-2.1-2H2.1
	C0.9,1.4,0,2.3,0,3.4v12.3c0,1.1,0.9,1.9,2.1,1.9h0.7c0,0.3,0,0.5,0,0.7c0,1.9,1.5,3.4,3.4,3.4c1.9,0,3.4-1.5,3.4-3.4
	c0-0.2,0-0.4-0.1-0.7h8.2c0,0.3,0,0.5,0,0.7c0,1.9,1.5,3.4,3.4,3.4c1.9,0,3.4-1.5,3.4-3.4c0-0.2,0-0.4-0.1-0.7h2.4
	c0.2,0,0.3-0.1,0.3-0.3v-0.7C27,16.4,26.8,16.2,26.7,16.2z M19.4,6.8c0.3,0,0.7,0.2,0.9,0.4l3.5,3.5c0,0,0,0.1,0.1,0.1h-6.4v-4
	L19.4,6.8L19.4,6.8z M6.1,20.3c-1.1,0-2-0.9-2-2c0-1.1,0.9-2,2-2c1.1,0,2,0.9,2,2C8.1,19.4,7.2,20.3,6.1,20.3z M8.7,16.2
	c-0.6-0.8-1.6-1.4-2.7-1.4S4,15.4,3.4,16.2H2.1c-0.4,0-0.7-0.3-0.7-0.6V3.4c0-0.3,0.3-0.6,0.7-0.6h13.4c0.4,0,0.8,0.3,0.8,0.6v12.9
	H8.7z M20.9,20.3c-1.1,0-2-0.9-2-2c0-1.1,0.9-2,2-2c1.1,0,2,0.9,2,2C23,19.4,22,20.3,20.9,20.3z M20.9,14.9c-1.1,0-2.1,0.5-2.7,1.4
	h-0.7v-4.1h6.8v4.1h-0.7C23,15.4,22,14.9,20.9,14.9z"/>
</svg>
