<svg xmlns="http://www.w3.org/2000/svg" viewBox="0 0 27 23">
<path fill="#3081EB" d="M22.7,1.9H2.1C0.9,1.9,0,2.8,0,3.9v15.1c0,1.2,0.9,2.1,2.1,2.1h20.6c1.1,0,2.1-0.9,2.1-2.1V3.9
	C24.8,2.8,23.8,1.9,22.7,1.9z M2.1,3.3h20.6c0.3,0,0.7,0.3,0.7,0.7V6h-22V3.9C1.4,3.6,1.7,3.3,2.1,3.3z M22.7,19.8H2.1
	c-0.4,0-0.7-0.3-0.7-0.7v-8.9h22v8.9C23.4,19.4,23,19.8,22.7,19.8z M8.3,16.1c0-0.3-0.3-0.5-0.5-0.5H4.6c-0.3,0-0.5,0.3-0.5,0.5v0.3
	c0,0.3,0.2,0.5,0.5,0.5h3.1c0.3,0,0.5-0.2,0.5-0.5V16.1z M16.5,16.1c0-0.3-0.3-0.5-0.5-0.5h-5.8c-0.3,0-0.5,0.3-0.5,0.5v0.3
	c0,0.3,0.2,0.5,0.5,0.5H16c0.3,0,0.5-0.2,0.5-0.5V16.1z"/>
</svg>
