<svg xmlns="http://www.w3.org/2000/svg" viewBox="0 0 27 23">
<path fill="#3081EB" d="M11,1.9c2.6,0,4.8,2.2,4.8,4.8c0,2.7-2.2,4.8-4.8,4.8c-2.7,0-4.8-2.1-4.8-4.8C6.2,4.1,8.3,1.9,11,1.9z
	 M16.5,15.6c2.2,0,4.1,1.9,4.1,4.1v1.4H1.4v-1.4c0-2.2,1.8-4.1,4.1-4.1c3.7,0,2.9,0.7,5.5,0.7C13.6,16.3,12.8,15.6,16.5,15.6z
	 M11,0.5c-3.4,0-6.2,2.8-6.2,6.2c0,3.4,2.8,6.2,6.2,6.2c3.4,0,6.2-2.8,6.2-6.2C17.2,3.3,14.4,0.5,11,0.5z M16.5,14.3
	c-4,0-3.1,0.7-5.5,0.7c-2.4,0-1.5-0.7-5.5-0.7c-3.1,0-5.5,2.5-5.5,5.5v1.4c0,0.8,0.6,1.4,1.4,1.4h19.3c0.7,0,1.4-0.6,1.4-1.4v-1.4
	C22,16.7,19.5,14.3,16.5,14.3z"/>
</svg>
