<svg xmlns="http://www.w3.org/2000/svg" viewBox="0 0 27 23"><path fill="#3081EB" d="M11 1.9c2.6 0 4.8 2.2 4.8 4.8 0 2.7-2.2 4.8-4.8 4.8-2.7 0-4.8-2.1-4.8-4.8 0-2.6 2.1-4.8 4.8-4.8zm5.5 13.7c2.2 0 4.1 1.9 4.1 4.1v1.4H1.4v-1.4c0-2.2 1.8-4.1 4.1-4.1 3.7 0 2.9.7 5.5.7s1.8-.7 5.5-.7zM11 .5C7.6.5 4.8 3.3 4.8 6.7c0 3.4 2.8 6.2 6.2 6.2 3.4 0 6.2-2.8 6.2-6.2 0-3.4-2.8-6.2-6.2-6.2zm5.5 13.8c-4 0-3.1.7-5.5.7s-1.5-.7-5.5-.7c-3.1 0-5.5 2.5-5.5 5.5v1.4c0 .8.6 1.4 1.4 1.4h19.3c.7 0 1.4-.6 1.4-1.4v-1.4c-.1-3.1-2.6-5.5-5.6-5.5z"/></svg>