<svg width="25" height="23" fill="none" xmlns="http://www.w3.org/2000/svg"><path d="M24.063 7.625a.61.61 0 00-.258.086L16.5 10.375l-.473-.129c1.032-1.504 1.848-3.05 1.848-4.21 0-2.923-2.492-5.286-5.5-5.286-3.05 0-5.5 2.406-5.5 5.285 0 .516.172 1.117.43 1.762L.859 10.03c-.515.215-.859.73-.859 1.29v10.742c0 .43.3.687.688.687.085 0 .171 0 .257-.043L8.25 20l7.39 2.621c.56.172 1.16.215 1.72 0l6.488-2.277a1.29 1.29 0 00.902-1.246V8.313a.707.707 0 00-.688-.688zm-16.5 11.172l-6.231 2.277-.043-9.71 6.274-2.192v9.625zm4.812-16.672c2.234 0 4.125 1.762 4.125 3.91 0 1.16-1.676 3.824-4.125 6.746C9.883 9.86 8.25 7.195 8.25 6.035c0-2.148 1.848-3.91 4.125-3.91zM8.937 18.797V10.59c1.032 1.547 2.235 2.922 2.88 3.695.128.172.343.215.558.215.172 0 .387-.043.516-.215.558-.644 1.46-1.676 2.32-2.879l.601.215v9.625l-6.874-2.45zm8.25 2.45V11.62l6.188-2.32.043 9.754-6.23 2.191z" fill="#497CFF"/><path d="M24.063 7.625a.61.61 0 00-.258.086L16.5 10.375l-.473-.129c1.032-1.504 1.848-3.05 1.848-4.21 0-2.923-2.492-5.286-5.5-5.286-3.05 0-5.5 2.406-5.5 5.285 0 .516.172 1.117.43 1.762L.859 10.03c-.515.215-.859.73-.859 1.29v10.742c0 .43.3.687.688.687.085 0 .171 0 .257-.043L8.25 20l7.39 2.621c.56.172 1.16.215 1.72 0l6.488-2.277a1.29 1.29 0 00.902-1.246V8.313a.707.707 0 00-.688-.688zm-16.5 11.172l-6.231 2.277-.043-9.71 6.274-2.192v9.625zm4.812-16.672c2.234 0 4.125 1.762 4.125 3.91 0 1.16-1.676 3.824-4.125 6.746C9.883 9.86 8.25 7.195 8.25 6.035c0-2.148 1.848-3.91 4.125-3.91zM8.937 18.797V10.59c1.032 1.547 2.235 2.922 2.88 3.695.128.172.343.215.558.215.172 0 .387-.043.516-.215.558-.644 1.46-1.676 2.32-2.879l.601.215v9.625l-6.874-2.45zm8.25 2.45V11.62l6.188-2.32.043 9.754-6.23 2.191z" fill="#0253BC"/><path d="M24.063 7.625a.61.61 0 00-.258.086L16.5 10.375l-.473-.129c1.032-1.504 1.848-3.05 1.848-4.21 0-2.923-2.492-5.286-5.5-5.286-3.05 0-5.5 2.406-5.5 5.285 0 .516.172 1.117.43 1.762L.859 10.03c-.515.215-.859.73-.859 1.29v10.742c0 .43.3.687.688.687.085 0 .171 0 .257-.043L8.25 20l7.39 2.621c.56.172 1.16.215 1.72 0l6.488-2.277a1.29 1.29 0 00.902-1.246V8.313a.707.707 0 00-.688-.688zm-16.5 11.172l-6.231 2.277-.043-9.71 6.274-2.192v9.625zm4.812-16.672c2.234 0 4.125 1.762 4.125 3.91 0 1.16-1.676 3.824-4.125 6.746C9.883 9.86 8.25 7.195 8.25 6.035c0-2.148 1.848-3.91 4.125-3.91zM8.937 18.797V10.59c1.032 1.547 2.235 2.922 2.88 3.695.128.172.343.215.558.215.172 0 .387-.043.516-.215.558-.644 1.46-1.676 2.32-2.879l.601.215v9.625l-6.874-2.45zm8.25 2.45V11.62l6.188-2.32.043 9.754-6.23 2.191z" fill="#3081EB"/></svg>