<svg xmlns="http://www.w3.org/2000/svg" viewBox="0 0 16 16"><path d="M15.3 2.7H4l-.2-1.3c-.1-.3-.4-.5-.7-.5H.3C.1.9 0 1 0 1.2v.7c0 .2.1.3.3.3h2.2l1.9 9.9c-.2.3-.4.8-.4 1.2 0 1 .8 1.8 1.8 1.8s1.8-.8 1.8-1.8c0-.3-.1-.6-.3-.9h4c-.1.3-.2.6-.2.9 0 1 .8 1.8 1.8 1.8s1.8-.8 1.8-1.8c0-.5-.2-.9-.6-1.3v-.1c.1-.4-.2-.8-.7-.8H5.6l-.2-1.3h8.7c.3 0 .6-.2.7-.5L16 3.5c.1-.4-.2-.8-.7-.8zM5.8 14c-.4 0-.7-.3-.7-.7 0-.4.3-.7.7-.7.4 0 .7.3.7.7 0 .4-.4.7-.7.7zm7.1 0c-.4 0-.7-.3-.7-.7 0-.4.3-.7.7-.7.4 0 .7.3.7.7 0 .4-.3.7-.7.7zm.6-5.6H5.1L4.3 4h10.3l-1.1 4.4z"/></svg>