<svg width="26" height="16" fill="none" xmlns="http://www.w3.org/2000/svg"><path d="M16.262 1.71H9.34v12.58h6.923V1.71z" fill="#FF5F00"/><path d="M9.779 8.002a8.06 8.06 0 01.793-3.497 7.971 7.971 0 012.229-2.793A7.837 7.837 0 004.454.807a7.943 7.943 0 00-3.249 2.95A8.064 8.064 0 000 8.001a8.07 8.07 0 001.205 4.244 7.943 7.943 0 003.249 2.95 7.836 7.836 0 008.347-.905 7.97 7.97 0 01-2.228-2.792 8.06 8.06 0 01-.794-3.496z" fill="#EB001B"/><path d="M25.603 8.001a8.065 8.065 0 01-1.206 4.244 7.943 7.943 0 01-3.249 2.95 7.836 7.836 0 01-8.347-.906 7.984 7.984 0 002.227-2.793 8.073 8.073 0 000-6.992 7.984 7.984 0 00-2.227-2.793 7.836 7.836 0 018.347-.907 7.942 7.942 0 013.25 2.95A8.065 8.065 0 0125.602 8zm-.756 4.955v-.258h.103v-.053h-.261v.053h.112v.258h.046zm.507 0v-.311h-.079l-.092.222-.092-.222h-.07v.311h.056v-.233l.086.202h.06l.085-.202v.235l.046-.002z" fill="#F79E1B"/></svg>