<svg width="57" height="17" fill="none" xmlns="http://www.w3.org/2000/svg"><path d="M40.52 7.63v8.402h5.112v-4.726h5.144c2.687 0 4.981-1.527 5.866-3.676H40.52z" fill="#006848"/><path d="M40.29 0c.017.427.082.853.18 1.247.017.082.05.18.066.263.017.033.017.065.033.115.918 2.904 3.62 5.005 6.816 5.005h9.437c.066-.328.098-.657.098-1.001a5.607 5.607 0 00-1.835-4.152A5.58 5.58 0 0051.285 0H40.29z" fill="url(#paint0_linear)"/><path d="M31.344 1.69l-3.572 7.762h-.36V0h-5.08v16h4.31c1.13 0 2.162-.656 2.637-1.69l3.572-7.762h.36V16h5.08V0h-4.31c-1.13 0-2.162.656-2.637 1.69zm-23.48.41l2.13 7.352h.36l2.114-7.351A2.896 2.896 0 0115.254 0h5.079v16h-5.08V6.548h-.36L11.977 16H8.356L5.439 6.548h-.36V16H0V0h5.079c1.294 0 2.425.853 2.785 2.1z" fill="#006848"/><defs><linearGradient id="paint0_linear" x1="40.288" y1="3.317" x2="56.915" y2="3.317" gradientUnits="userSpaceOnUse"><stop stop-color="#02AFFF"/><stop offset="1" stop-color="#1F5BDE"/></linearGradient></defs></svg>