<svg width="24" height="24" fill="none" xmlns="http://www.w3.org/2000/svg"><path d="M12 0c6.627 0 12 5.373 12 12s-5.373 12-12 12S0 18.627 0 12C-.019 5.391 5.323.019 11.932 0H12z" fill="#497CFF"/><path d="M12 0c6.627 0 12 5.373 12 12s-5.373 12-12 12S0 18.627 0 12C-.019 5.391 5.323.019 11.932 0H12z" fill="#0253BC"/><path d="M12 0c6.627 0 12 5.373 12 12s-5.373 12-12 12S0 18.627 0 12C-.019 5.391 5.323.019 11.932 0H12z" fill="#3081EB"/><path d="M18.647 8.693l-8.523 8.522-4.772-4.738 1.943-1.91 2.83 2.796 6.579-6.58 1.943 1.91z" fill="#fff"/></svg>