<svg width="25" height="20" fill="none" xmlns="http://www.w3.org/2000/svg"><path d="M22.688.125H2.063C.903.125 0 1.07 0 2.188v15.124c0 1.16.902 2.063 2.063 2.063h20.625a2.063 2.063 0 002.062-2.063V2.188c0-1.117-.945-2.062-2.063-2.062zM2.063 1.5h20.625c.343 0 .687.344.687.688V4.25h-22V2.187c0-.343.3-.687.688-.687zM22.688 18H2.063a.679.679 0 01-.688-.688V8.376h22v8.938a.707.707 0 01-.688.687zM8.25 14.39c0-.257-.258-.515-.516-.515H4.641a.523.523 0 00-.516.516v.343c0 .301.215.516.516.516h3.093a.522.522 0 00.516-.516v-.343zm8.25 0c0-.257-.258-.515-.516-.515h-5.843a.523.523 0 00-.516.516v.343c0 .301.215.516.516.516h5.843a.522.522 0 00.516-.516v-.343z" fill="#497CFF"/><path d="M22.688.125H2.063C.903.125 0 1.07 0 2.188v15.124c0 1.16.902 2.063 2.063 2.063h20.625a2.063 2.063 0 002.062-2.063V2.188c0-1.117-.945-2.062-2.063-2.062zM2.063 1.5h20.625c.343 0 .687.344.687.688V4.25h-22V2.187c0-.343.3-.687.688-.687zM22.688 18H2.063a.679.679 0 01-.688-.688V8.376h22v8.938a.707.707 0 01-.688.687zM8.25 14.39c0-.257-.258-.515-.516-.515H4.641a.523.523 0 00-.516.516v.343c0 .301.215.516.516.516h3.093a.522.522 0 00.516-.516v-.343zm8.25 0c0-.257-.258-.515-.516-.515h-5.843a.523.523 0 00-.516.516v.343c0 .301.215.516.516.516h5.843a.522.522 0 00.516-.516v-.343z" fill="#0253BC"/><path d="M22.688.125H2.063C.903.125 0 1.07 0 2.188v15.124c0 1.16.902 2.063 2.063 2.063h20.625a2.063 2.063 0 002.062-2.063V2.188c0-1.117-.945-2.062-2.063-2.062zM2.063 1.5h20.625c.343 0 .687.344.687.688V4.25h-22V2.187c0-.343.3-.687.688-.687zM22.688 18H2.063a.679.679 0 01-.688-.688V8.376h22v8.938a.707.707 0 01-.688.687zM8.25 14.39c0-.257-.258-.515-.516-.515H4.641a.523.523 0 00-.516.516v.343c0 .301.215.516.516.516h3.093a.522.522 0 00.516-.516v-.343zm8.25 0c0-.257-.258-.515-.516-.515h-5.843a.523.523 0 00-.516.516v.343c0 .301.215.516.516.516h5.843a.522.522 0 00.516-.516v-.343z" fill="#3081EB"/></svg>