<svg width="12" height="16" fill="none" xmlns="http://www.w3.org/2000/svg"><path d="M11.531 3.063L8.937.437A1.543 1.543 0 007.875 0H1.5A1.5 1.5 0 000 1.5v13c0 .844.656 1.5 1.5 1.5h9a1.5 1.5 0 001.5-1.5V4.125c0-.375-.188-.781-.469-1.063zm-.687.718c.062.063.094.156.125.219H8V1.031c.063.032.156.063.219.125l2.625 2.625zM10.5 15h-9a.494.494 0 01-.5-.5v-13c0-.25.219-.5.5-.5H7v3.25c0 .438.313.75.75.75H11v9.5c0 .281-.25.5-.5.5zm-.688-5.344C9.376 9.25 8.095 9.375 7.5 9.47c-.656-.406-1.094-.969-1.406-1.781.125-.563.375-1.47.187-2.032-.125-.875-1.25-.781-1.375-.218-.156.593-.031 1.406.25 2.437-.375.875-.937 2.094-1.312 2.781-.656.313-1.688.906-1.844 1.625-.094.531.719 1.219 1.656.188.281-.281.594-.75.969-1.406.844-.282 1.781-.626 2.563-.75.687.374 1.5.624 2.03.624.876 0 .907-.937.595-1.28zm-7.187 2.781c.188-.5.906-1.062 1.125-1.28-.688 1.124-1.125 1.312-1.125 1.28zm3-6.937c.25 0 .219 1.156.063 1.5-.188-.531-.157-1.5-.063-1.5zm-.906 4.969c.343-.625.656-1.344.906-1.969.313.531.688.969 1.094 1.281-.75.156-1.407.469-2 .688zm4.812-.188S9.344 10.5 8.156 10c1.281-.094 1.5.219 1.375.281z" fill="#497CFF"/><path d="M11.531 3.063L8.937.437A1.543 1.543 0 007.875 0H1.5A1.5 1.5 0 000 1.5v13c0 .844.656 1.5 1.5 1.5h9a1.5 1.5 0 001.5-1.5V4.125c0-.375-.188-.781-.469-1.063zm-.687.718c.062.063.094.156.125.219H8V1.031c.063.032.156.063.219.125l2.625 2.625zM10.5 15h-9a.494.494 0 01-.5-.5v-13c0-.25.219-.5.5-.5H7v3.25c0 .438.313.75.75.75H11v9.5c0 .281-.25.5-.5.5zm-.688-5.344C9.376 9.25 8.095 9.375 7.5 9.47c-.656-.406-1.094-.969-1.406-1.781.125-.563.375-1.47.187-2.032-.125-.875-1.25-.781-1.375-.218-.156.593-.031 1.406.25 2.437-.375.875-.937 2.094-1.312 2.781-.656.313-1.688.906-1.844 1.625-.094.531.719 1.219 1.656.188.281-.281.594-.75.969-1.406.844-.282 1.781-.626 2.563-.75.687.374 1.5.624 2.03.624.876 0 .907-.937.595-1.28zm-7.187 2.781c.188-.5.906-1.062 1.125-1.28-.688 1.124-1.125 1.312-1.125 1.28zm3-6.937c.25 0 .219 1.156.063 1.5-.188-.531-.157-1.5-.063-1.5zm-.906 4.969c.343-.625.656-1.344.906-1.969.313.531.688.969 1.094 1.281-.75.156-1.407.469-2 .688zm4.812-.188S9.344 10.5 8.156 10c1.281-.094 1.5.219 1.375.281z" fill="#0253BC"/><path d="M11.531 3.063L8.937.437A1.543 1.543 0 007.875 0H1.5A1.5 1.5 0 000 1.5v13c0 .844.656 1.5 1.5 1.5h9a1.5 1.5 0 001.5-1.5V4.125c0-.375-.188-.781-.469-1.063zm-.687.718c.062.063.094.156.125.219H8V1.031c.063.032.156.063.219.125l2.625 2.625zM10.5 15h-9a.494.494 0 01-.5-.5v-13c0-.25.219-.5.5-.5H7v3.25c0 .438.313.75.75.75H11v9.5c0 .281-.25.5-.5.5zm-.688-5.344C9.376 9.25 8.095 9.375 7.5 9.47c-.656-.406-1.094-.969-1.406-1.781.125-.563.375-1.47.187-2.032-.125-.875-1.25-.781-1.375-.218-.156.593-.031 1.406.25 2.437-.375.875-.937 2.094-1.312 2.781-.656.313-1.688.906-1.844 1.625-.094.531.719 1.219 1.656.188.281-.281.594-.75.969-1.406.844-.282 1.781-.626 2.563-.75.687.374 1.5.624 2.03.624.876 0 .907-.937.595-1.28zm-7.187 2.781c.188-.5.906-1.062 1.125-1.28-.688 1.124-1.125 1.312-1.125 1.28zm3-6.937c.25 0 .219 1.156.063 1.5-.188-.531-.157-1.5-.063-1.5zm-.906 4.969c.343-.625.656-1.344.906-1.969.313.531.688.969 1.094 1.281-.75.156-1.407.469-2 .688zm4.812-.188S9.344 10.5 8.156 10c1.281-.094 1.5.219 1.375.281z" fill="#3081EB"/></svg>