<svg width="293" height="205" fill="none" xmlns="http://www.w3.org/2000/svg"><path fill="#fff" d="M0 0h293v205H0z"/><path d="M20 177l5 2.887v-5.774L20 177zm253 0l-5-2.887v5.774l5-2.887zm-248.5.5h244v-1h-244v1z" fill="#D8D8D8"/><g fill="#D8D8D8"><path d="M56.522 79.056c0-7.191-7.728-13.021-17.26-13.021-9.534 0-17.262 5.83-17.262 13.02 0 7.192 7.728 13.022 17.261 13.022s17.261-5.83 17.261-13.021zm-3.329 27.14c.316-4.75-4.35-8.928-10.42-9.332-6.072-.403-11.25 3.12-11.567 7.87-.317 4.75 4.348 8.928 10.42 9.332 6.071.403 11.25-3.12 11.567-7.87zm7.369 17.242c0-3.748-4.029-6.786-8.998-6.786-4.97 0-8.998 3.038-8.998 6.786 0 3.748 4.029 6.786 8.998 6.786 4.97 0 8.998-3.038 8.998-6.786zm9.125 12.669c-.762-3.076-4.627-4.768-8.634-3.778-4.007.99-6.637 4.286-5.875 7.363.761 3.077 4.627 4.768 8.634 3.779 4.007-.99 6.637-4.287 5.875-7.364zm11.382 13.29c-.366-3.066-3.92-5.164-7.938-4.686-4.018.478-6.98 3.35-6.614 6.416.366 3.066 3.92 5.164 7.938 4.687 4.018-.478 6.98-3.351 6.614-6.417z"/><path d="M103.346 65.483c-32.025-11.444-41.5 8.62-42.786 19.44-4.772 30.079 22.037 79.046 70.881 67.124 2.204-2.751 67.392-25.492 101.73-23.291 27.471 1.76 36.175-21.152 37.093-32.829.736-6.927-9.549-34.295-35.073-33.195-25.398 1.095-35.624 25.493-56.741 37.78-16.894 9.83-31.523 4.096-36.726 0-9.181-7.703-17.444-26.41-38.378-35.029z"/></g><path d="M20 29v152M273 29v152" stroke="#D8D8D8"/></svg>