<svg width="22" height="23" fill="none" xmlns="http://www.w3.org/2000/svg"><path d="M11 2.125c2.621 0 4.813 2.191 4.813 4.813 0 2.664-2.192 4.812-4.813 4.812a4.805 4.805 0 01-4.813-4.813c0-2.62 2.149-4.812 4.813-4.812zm5.5 13.75c2.234 0 4.125 1.89 4.125 4.125v1.375H1.375V20c0-2.234 1.848-4.125 4.125-4.125 3.652 0 2.879.688 5.5.688 2.578 0 1.805-.688 5.5-.688zM11 .75a6.19 6.19 0 00-6.188 6.188A6.162 6.162 0 0011 13.125a6.19 6.19 0 006.188-6.188C17.188 3.543 14.395.75 11 .75zm5.5 13.75c-3.996 0-3.05.688-5.5.688S9.453 14.5 5.5 14.5C2.45 14.5 0 16.992 0 20v1.375c0 .773.602 1.375 1.375 1.375h19.25c.73 0 1.375-.602 1.375-1.375V20c0-3.008-2.492-5.5-5.5-5.5z" fill="#497CFF"/><path d="M11 2.125c2.621 0 4.813 2.191 4.813 4.813 0 2.664-2.192 4.812-4.813 4.812a4.805 4.805 0 01-4.813-4.813c0-2.62 2.149-4.812 4.813-4.812zm5.5 13.75c2.234 0 4.125 1.89 4.125 4.125v1.375H1.375V20c0-2.234 1.848-4.125 4.125-4.125 3.652 0 2.879.688 5.5.688 2.578 0 1.805-.688 5.5-.688zM11 .75a6.19 6.19 0 00-6.188 6.188A6.162 6.162 0 0011 13.125a6.19 6.19 0 006.188-6.188C17.188 3.543 14.395.75 11 .75zm5.5 13.75c-3.996 0-3.05.688-5.5.688S9.453 14.5 5.5 14.5C2.45 14.5 0 16.992 0 20v1.375c0 .773.602 1.375 1.375 1.375h19.25c.73 0 1.375-.602 1.375-1.375V20c0-3.008-2.492-5.5-5.5-5.5z" fill="#0253BC"/><path d="M11 2.125c2.621 0 4.813 2.191 4.813 4.813 0 2.664-2.192 4.812-4.813 4.812a4.805 4.805 0 01-4.813-4.813c0-2.62 2.149-4.812 4.813-4.812zm5.5 13.75c2.234 0 4.125 1.89 4.125 4.125v1.375H1.375V20c0-2.234 1.848-4.125 4.125-4.125 3.652 0 2.879.688 5.5.688 2.578 0 1.805-.688 5.5-.688zM11 .75a6.19 6.19 0 00-6.188 6.188A6.162 6.162 0 0011 13.125a6.19 6.19 0 006.188-6.188C17.188 3.543 14.395.75 11 .75zm5.5 13.75c-3.996 0-3.05.688-5.5.688S9.453 14.5 5.5 14.5C2.45 14.5 0 16.992 0 20v1.375c0 .773.602 1.375 1.375 1.375h19.25c.73 0 1.375-.602 1.375-1.375V20c0-3.008-2.492-5.5-5.5-5.5z" fill="#3081EB"/></svg>