<svg width="50" height="16" fill="none" xmlns="http://www.w3.org/2000/svg"><mask id="a" maskUnits="userSpaceOnUse" x="0" y="0" width="50" height="16"><path d="M0 .122h49.063V15.98H0" fill="#fff"/></mask><g mask="url(#a)" fill-rule="evenodd" clip-rule="evenodd" fill="#005CA3"><path d="M17.286 15.771L19.772.4h3.974L21.26 15.771h-3.974zM35.668.776a9.813 9.813 0 00-3.565-.654c-3.925 0-6.689 2.093-6.705 5.085-.033 2.208 1.979 3.434 3.483 4.17 1.538.752 2.061 1.243 2.061 1.913-.016 1.03-1.243 1.505-2.387 1.505-1.587 0-2.437-.245-3.73-.818l-.523-.245-.556 3.45c.933.425 2.65.802 4.432.818 4.17 0 6.885-2.06 6.918-5.249.016-1.75-1.047-3.09-3.336-4.186-1.39-.703-2.24-1.178-2.24-1.897.016-.654.719-1.325 2.289-1.325a6.754 6.754 0 012.96.59l.36.162.54-3.32z"/></g><path fill-rule="evenodd" clip-rule="evenodd" d="M45.857.4h-3.075c-.948 0-1.668.278-2.077 1.275l-5.904 14.096h4.17s.688-1.897.835-2.306h5.102c.115.54.475 2.306.475 2.306h3.68L45.856.4zm-4.907 9.926c.328-.883 1.587-4.301 1.587-4.301-.016.033.327-.9.523-1.472l.278 1.325s.753 3.68.916 4.448H40.95zM13.966.4l-3.892 10.482-.425-2.126c-.72-2.453-2.976-5.118-5.495-6.443l3.565 13.442h4.203L18.17.4h-4.203z" fill="#005CA3"/><path fill-rule="evenodd" clip-rule="evenodd" d="M6.46.4H.065L0 .71c4.988 1.276 8.292 4.35 9.649 8.046L8.259 1.69C8.03.711 7.327.432 6.46.4z" fill="#FFAD30"/></svg>