<svg width="7" height="12" viewBox="0 0 7 12" fill="none" xmlns="http://www.w3.org/2000/svg">
<path d="M6.1739 6.41468L1.7738 11.1617C1.56166 11.3906 1.21753 11.3906 1.00539 11.1617L0.492139 10.608C0.280228 10.3793 0.280002 10.009 0.491234 9.77991L3.97849 6.00016L0.491461 2.22017C0.280002 1.99105 0.280455 1.62074 0.492367 1.39211L1.00562 0.838363C1.21776 0.609487 1.56189 0.609487 1.77402 0.838363L6.1739 5.58565C6.38604 5.81452 6.38604 6.1858 6.1739 6.41468Z" fill="#242424"/>
<path d="M6.1739 6.41468L1.7738 11.1617C1.56166 11.3906 1.21753 11.3906 1.00539 11.1617L0.492139 10.608C0.280228 10.3793 0.280002 10.009 0.491234 9.77991L3.97849 6.00016L0.491461 2.22017C0.280002 1.99105 0.280455 1.62074 0.492367 1.39211L1.00562 0.838363C1.21776 0.609487 1.56189 0.609487 1.77402 0.838363L6.1739 5.58565C6.38604 5.81452 6.38604 6.1858 6.1739 6.41468Z" fill="#555555"/>
</svg>
