<svg width="7" height="12" viewBox="0 0 7 12" fill="none" xmlns="http://www.w3.org/2000/svg">
<path d="M0.826096 5.58532L5.2262 0.838283C5.43834 0.609407 5.78247 0.609407 5.99461 0.838283L6.50786 1.39203C6.71977 1.62066 6.72 1.99097 6.50877 2.22009L3.02151 5.99984L6.50854 9.77983C6.72 10.009 6.71955 10.3793 6.50763 10.6079L5.99438 11.1616C5.78224 11.3905 5.43811 11.3905 5.22598 11.1616L0.826096 6.41435C0.613958 6.18548 0.613958 5.8142 0.826096 5.58532Z" fill="#242424"/>
<path d="M0.826096 5.58532L5.2262 0.838283C5.43834 0.609407 5.78247 0.609407 5.99461 0.838283L6.50786 1.39203C6.71977 1.62066 6.72 1.99097 6.50877 2.22009L3.02151 5.99984L6.50854 9.77983C6.72 10.009 6.71955 10.3793 6.50763 10.6079L5.99438 11.1616C5.78224 11.3905 5.43811 11.3905 5.22598 11.1616L0.826096 6.41435C0.613958 6.18548 0.613958 5.8142 0.826096 5.58532Z" fill="#555555"/>
</svg>
