<svg width="8" height="4" viewBox="0 0 8 4" fill="none" xmlns="http://www.w3.org/2000/svg">
<path d="M0.519052 1.4556e-07L7.18135 1.05169e-08C7.64267 1.16602e-09 7.87369 0.510917 7.5475 0.809717L4.21635 3.86108C4.01414 4.04631 3.68626 4.04631 3.48405 3.86108L0.152906 0.809717C-0.173317 0.510917 0.0577316 1.54911e-07 0.519052 1.4556e-07Z" fill="#497CFF"/>
<path d="M0.519052 1.4556e-07L7.18135 1.05169e-08C7.64267 1.16602e-09 7.87369 0.510917 7.5475 0.809717L4.21635 3.86108C4.01414 4.04631 3.68626 4.04631 3.48405 3.86108L0.152906 0.809717C-0.173317 0.510917 0.0577316 1.54911e-07 0.519052 1.4556e-07Z" fill="#0253BC"/>
<path d="M0.519052 1.4556e-07L7.18135 1.05169e-08C7.64267 1.16602e-09 7.87369 0.510917 7.5475 0.809717L4.21635 3.86108C4.01414 4.04631 3.68626 4.04631 3.48405 3.86108L0.152906 0.809717C-0.173317 0.510917 0.0577316 1.54911e-07 0.519052 1.4556e-07Z" fill="#3081EB"/>
</svg>
