<svg width="263" height="60" viewBox="0 0 263 60" fill="none" xmlns="http://www.w3.org/2000/svg">
<path d="M54.0828 7.55023H28.9426V13.3088H37.687C37.8803 13.3088 38.0658 13.3843 38.2029 13.5189C38.3401 13.6535 38.4179 13.8362 38.4194 14.0273V52.8517H44.6388V14.0273C44.6388 13.8367 44.7154 13.654 44.8517 13.5192C44.988 13.3845 45.1729 13.3088 45.3657 13.3088H54.1101L54.0828 7.55023Z" fill="#141414"/>
<path d="M72.0403 7.55023H62.6166L52.8517 52.8247H63.2001L66.2221 46.9508H61.4277C61.3112 46.9529 61.1958 46.9294 61.0898 46.8821C60.9838 46.8348 60.8899 46.7649 60.815 46.6774C60.74 46.59 60.686 46.4872 60.6568 46.3766C60.6275 46.2661 60.6239 46.1505 60.646 46.0384L66.701 17.2195C66.729 17.0823 66.8047 16.9589 66.9151 16.8703C67.0255 16.7817 67.1638 16.7334 67.3065 16.7336C67.4488 16.7344 67.5866 16.7831 67.6968 16.8715C67.807 16.9599 67.883 17.0828 67.912 17.2195L75.4256 52.8517H81.7943L72.0403 7.55023Z" fill="#141414"/>
<path d="M108.946 7.55023V42.9443C108.933 43.0674 108.883 43.183 108.801 43.2739C108.72 43.3648 108.612 43.426 108.494 43.4485C108.376 43.471 108.254 43.4535 108.146 43.3987C108.038 43.3438 107.951 43.2546 107.896 43.1442L95.2317 7.55023H88.0862V52.8517H93.6578V20.8338C93.6586 20.6476 93.7229 20.4676 93.8395 20.3253C93.9561 20.1829 94.1176 20.0873 94.2957 20.0551C94.4739 20.023 94.6573 20.0563 94.814 20.1492C94.9707 20.2422 95.0907 20.3889 95.153 20.5637L106.642 52.8517H114.512V7.55023H108.946Z" fill="#141414"/>
<path d="M148.488 16.9606V7.55023H132.067C129.747 7.55023 127.522 8.45687 125.882 10.0707C124.242 11.6845 123.321 13.8734 123.321 16.1557V44.2462C123.321 46.5285 124.242 48.7174 125.882 50.3312C127.522 51.945 129.747 52.8517 132.067 52.8517H148.488V43.4413H141.993V46.5097C141.992 46.695 141.916 46.8722 141.782 47.0028C141.648 47.1333 141.468 47.2065 141.279 47.2065H134.378C133.809 47.2073 133.246 47.0977 132.721 46.8841C132.195 46.6705 131.718 46.357 131.315 45.9617C130.913 45.5663 130.594 45.0968 130.376 44.58C130.158 44.0632 130.046 43.5092 130.046 42.9497V17.4305C130.046 16.8711 130.158 16.3171 130.376 15.8003C130.594 15.2835 130.913 14.814 131.315 14.4186C131.718 14.0233 132.195 13.7098 132.721 13.4962C133.246 13.2826 133.809 13.173 134.378 13.1737H141.279C141.468 13.1737 141.648 13.247 141.782 13.3775C141.916 13.5081 141.992 13.6853 141.993 13.8706V16.939L148.488 16.9606Z" fill="#141414"/>
<path d="M163.89 46.5529V34.3443C163.89 34.2878 163.9 34.2317 163.922 34.1793C163.943 34.1269 163.975 34.0792 164.015 34.039C164.055 33.9988 164.103 33.9669 164.155 33.9451C164.208 33.9234 164.265 33.9121 164.322 33.9121H176.34V28.0942H164.322C164.212 28.0944 164.106 28.0531 164.026 27.9789C163.946 27.9046 163.897 27.8028 163.89 27.6944V13.849C163.89 13.7925 163.9 13.7364 163.922 13.684C163.943 13.6316 163.975 13.5839 164.015 13.5437C164.055 13.5035 164.103 13.4716 164.155 13.4498C164.208 13.428 164.265 13.4168 164.322 13.4168H179.361L182.464 7.55023H157.297V52.8517H182.464L179.334 46.9851H164.3C164.188 46.9795 164.083 46.9313 164.007 46.8507C163.931 46.7701 163.889 46.6634 163.89 46.5529Z" fill="#141414"/>
<path d="M25.1675 16.8225V7.55023H8.53059C6.26814 7.55023 4.09835 8.41141 2.49855 9.94432C0.898757 11.4772 0 13.5563 0 15.7242L0 23.0163C3.37385e-05 24.0704 0.291791 25.1057 0.845529 26.0166C1.39927 26.9275 2.19518 27.6814 3.15213 28.2015L16.725 35.5412C17.2727 35.8373 17.7283 36.2677 18.045 36.7883C18.3616 37.3089 18.528 37.9008 18.527 38.5034V41.4973C18.527 42.111 18.4009 42.7187 18.1558 43.2856C17.9107 43.8526 17.5515 44.3678 17.0986 44.8017C16.6457 45.2356 16.1081 45.5799 15.5164 45.8147C14.9247 46.0495 14.2905 46.1704 13.6501 46.1704H7.30722C7.09822 46.1704 6.89778 46.0909 6.74999 45.9493C6.60221 45.8076 6.51918 45.6156 6.51918 45.4153V42.2999H0V51.5933H16.6369C18.8993 51.5933 21.0691 50.7321 22.6689 49.1992C24.2687 47.6663 25.1675 45.5872 25.1675 43.4194V36.1061C25.1684 35.0571 24.8799 34.0264 24.3312 33.1185C23.7825 32.2107 22.993 31.458 22.0429 30.9367L8.44794 23.5865C7.9014 23.2891 7.44677 22.8584 7.13027 22.3381C6.81376 21.8178 6.64665 21.2265 6.64593 20.6243V17.6251C6.64521 17.0116 6.77068 16.4041 7.01517 15.8372C7.25966 15.2702 7.61837 14.755 8.0708 14.321C8.52323 13.887 9.0605 13.5427 9.6519 13.3078C10.2433 13.0729 10.8772 12.952 11.5174 12.952H17.8602C18.0697 12.9534 18.2702 13.0341 18.4178 13.1766C18.5654 13.319 18.6483 13.5116 18.6483 13.7124V16.8225H25.1675Z" fill="#141414"/>
<path d="M232.799 59.1435C249.479 59.1435 263 45.9038 263 29.5718C263 13.2397 249.479 0 232.799 0C216.12 0 202.598 13.2397 202.598 29.5718C202.598 45.9038 216.12 59.1435 232.799 59.1435Z" fill="#141414"/>
<path d="M242.956 38.7425L251.337 30.3658C251.444 30.2602 251.529 30.1344 251.587 29.9958C251.645 29.8572 251.675 29.7085 251.675 29.5583C251.675 29.4081 251.645 29.2594 251.587 29.1208C251.529 28.9822 251.444 28.8564 251.337 28.7508L242.956 20.3849L251.127 12.2182C251.342 12.0041 251.462 11.7136 251.462 11.4107C251.462 11.1078 251.342 10.8174 251.127 10.6032C250.913 10.389 250.622 10.2687 250.319 10.2687C250.016 10.2687 249.726 10.389 249.511 10.6032L241.373 18.786L232.97 10.404C232.864 10.2972 232.738 10.2125 232.6 10.1546C232.461 10.0968 232.312 10.067 232.162 10.067C232.011 10.067 231.863 10.0968 231.724 10.1546C231.585 10.2125 231.459 10.2972 231.354 10.404L222.983 18.786L214.812 10.6194C214.598 10.4052 214.307 10.2849 214.004 10.2849C213.701 10.2849 213.41 10.4052 213.196 10.6194C212.982 10.8335 212.862 11.124 212.862 11.4269C212.862 11.7297 212.982 12.0202 213.196 12.2344L221.367 20.4011L213.002 28.7616C212.895 28.8672 212.811 28.993 212.753 29.1316C212.695 29.2702 212.665 29.4189 212.665 29.5691C212.665 29.7193 212.695 29.868 212.753 30.0066C212.811 30.1452 212.895 30.271 213.002 30.3766L221.384 38.7532L213.212 46.9092C212.998 47.1233 212.878 47.4138 212.878 47.7167C212.878 48.0195 212.998 48.31 213.212 48.5242C213.427 48.7384 213.717 48.8587 214.02 48.8587C214.323 48.8587 214.614 48.7384 214.828 48.5242L222.999 40.3575L231.386 48.7395C231.492 48.8463 231.618 48.9311 231.756 48.9889C231.895 49.0468 232.044 49.0766 232.194 49.0766C232.344 49.0766 232.493 49.0468 232.632 48.9889C232.771 48.9311 232.896 48.8463 233.002 48.7395L241.373 40.3414L249.544 48.508C249.65 48.6141 249.776 48.6982 249.914 48.7556C250.053 48.813 250.202 48.8425 250.352 48.8425C250.502 48.8425 250.65 48.813 250.789 48.7556C250.928 48.6982 251.054 48.6141 251.16 48.508C251.266 48.402 251.35 48.2761 251.407 48.1375C251.465 47.999 251.494 47.8505 251.494 47.7005C251.494 47.5506 251.465 47.402 251.407 47.2635C251.35 47.1249 251.266 46.9991 251.16 46.893L242.956 38.7425ZM248.94 29.5906L241.373 37.1436L233.772 29.5637L241.373 21.9838L248.94 29.5906ZM232.173 12.805L239.757 20.3849L232.173 27.9648L224.588 20.3849L232.173 12.805ZM215.405 29.5637L222.983 21.9838L230.567 29.5637L222.983 37.1436L215.405 29.5637ZM232.173 46.3224L224.588 38.7425L232.173 31.1626L239.757 38.7425L232.173 46.3224Z" fill="white"/>
</svg>
