<svg width="25" height="23" viewBox="0 0 25 23" fill="none" xmlns="http://www.w3.org/2000/svg">
<path d="M24.0625 7.625C23.9766 7.625 23.8906 7.66797 23.8047 7.71094L16.5 10.375L16.0273 10.2461C17.0586 8.74219 17.875 7.19531 17.875 6.03516C17.875 3.11328 15.3828 0.75 12.375 0.75C9.32422 0.75 6.875 3.15625 6.875 6.03516C6.875 6.55078 7.04688 7.15234 7.30469 7.79688L0.859375 10.0312C0.34375 10.2461 0 10.7617 0 11.3203V22.0625C0 22.4922 0.300781 22.75 0.6875 22.75C0.773438 22.75 0.859375 22.75 0.945312 22.707L8.25 20L15.6406 22.6211C16.1992 22.793 16.8008 22.8359 17.3594 22.6211L23.8477 20.3438C24.4062 20.1719 24.75 19.6562 24.75 19.0977V8.3125C24.75 7.92578 24.4062 7.625 24.0625 7.625ZM7.5625 18.7969L1.33203 21.0742L1.28906 11.3633L7.5625 9.17188V18.7969ZM12.375 2.125C14.6094 2.125 16.5 3.88672 16.5 6.03516C16.5 7.19531 14.8242 9.85938 12.375 12.7812C9.88281 9.85938 8.25 7.19531 8.25 6.03516C8.25 3.88672 10.0977 2.125 12.375 2.125ZM8.9375 18.7969V10.5898C9.96875 12.1367 11.1719 13.5117 11.8164 14.2852C11.9453 14.457 12.1602 14.5 12.375 14.5C12.5469 14.5 12.7617 14.457 12.8906 14.2852C13.4492 13.6406 14.3516 12.6094 15.2109 11.4062L15.8125 11.6211V21.2461L8.9375 18.7969ZM17.1875 21.2461V11.6211L23.375 9.30078L23.418 19.0547L17.1875 21.2461Z" fill="#497CFF"/>
<path d="M24.0625 7.625C23.9766 7.625 23.8906 7.66797 23.8047 7.71094L16.5 10.375L16.0273 10.2461C17.0586 8.74219 17.875 7.19531 17.875 6.03516C17.875 3.11328 15.3828 0.75 12.375 0.75C9.32422 0.75 6.875 3.15625 6.875 6.03516C6.875 6.55078 7.04688 7.15234 7.30469 7.79688L0.859375 10.0312C0.34375 10.2461 0 10.7617 0 11.3203V22.0625C0 22.4922 0.300781 22.75 0.6875 22.75C0.773438 22.75 0.859375 22.75 0.945312 22.707L8.25 20L15.6406 22.6211C16.1992 22.793 16.8008 22.8359 17.3594 22.6211L23.8477 20.3438C24.4062 20.1719 24.75 19.6562 24.75 19.0977V8.3125C24.75 7.92578 24.4062 7.625 24.0625 7.625ZM7.5625 18.7969L1.33203 21.0742L1.28906 11.3633L7.5625 9.17188V18.7969ZM12.375 2.125C14.6094 2.125 16.5 3.88672 16.5 6.03516C16.5 7.19531 14.8242 9.85938 12.375 12.7812C9.88281 9.85938 8.25 7.19531 8.25 6.03516C8.25 3.88672 10.0977 2.125 12.375 2.125ZM8.9375 18.7969V10.5898C9.96875 12.1367 11.1719 13.5117 11.8164 14.2852C11.9453 14.457 12.1602 14.5 12.375 14.5C12.5469 14.5 12.7617 14.457 12.8906 14.2852C13.4492 13.6406 14.3516 12.6094 15.2109 11.4062L15.8125 11.6211V21.2461L8.9375 18.7969ZM17.1875 21.2461V11.6211L23.375 9.30078L23.418 19.0547L17.1875 21.2461Z" fill="#0253BC"/>
<path d="M24.0625 7.625C23.9766 7.625 23.8906 7.66797 23.8047 7.71094L16.5 10.375L16.0273 10.2461C17.0586 8.74219 17.875 7.19531 17.875 6.03516C17.875 3.11328 15.3828 0.75 12.375 0.75C9.32422 0.75 6.875 3.15625 6.875 6.03516C6.875 6.55078 7.04688 7.15234 7.30469 7.79688L0.859375 10.0312C0.34375 10.2461 0 10.7617 0 11.3203V22.0625C0 22.4922 0.300781 22.75 0.6875 22.75C0.773438 22.75 0.859375 22.75 0.945312 22.707L8.25 20L15.6406 22.6211C16.1992 22.793 16.8008 22.8359 17.3594 22.6211L23.8477 20.3438C24.4062 20.1719 24.75 19.6562 24.75 19.0977V8.3125C24.75 7.92578 24.4062 7.625 24.0625 7.625ZM7.5625 18.7969L1.33203 21.0742L1.28906 11.3633L7.5625 9.17188V18.7969ZM12.375 2.125C14.6094 2.125 16.5 3.88672 16.5 6.03516C16.5 7.19531 14.8242 9.85938 12.375 12.7812C9.88281 9.85938 8.25 7.19531 8.25 6.03516C8.25 3.88672 10.0977 2.125 12.375 2.125ZM8.9375 18.7969V10.5898C9.96875 12.1367 11.1719 13.5117 11.8164 14.2852C11.9453 14.457 12.1602 14.5 12.375 14.5C12.5469 14.5 12.7617 14.457 12.8906 14.2852C13.4492 13.6406 14.3516 12.6094 15.2109 11.4062L15.8125 11.6211V21.2461L8.9375 18.7969ZM17.1875 21.2461V11.6211L23.375 9.30078L23.418 19.0547L17.1875 21.2461Z" fill="#3081EB"/>
</svg>
