<svg xmlns="http://www.w3.org/2000/svg" viewBox="0 0 16 16">
	<path d="M15.3,2.7H4L3.8,1.4C3.7,1.1,3.4,0.9,3.1,0.9H0.3C0.1,0.9,0,1,0,1.2v0.7c0,0.2,0.1,0.3,0.3,0.3h2.2l1.9,9.9C4.2,12.4,4,12.9,4,13.3c0,1,0.8,1.8,1.8,1.8c1,0,1.8-0.8,1.8-1.8c0-0.3-0.1-0.6-0.3-0.9h4c-0.1,0.3-0.2,0.6-0.2,0.9c0,1,0.8,1.8,1.8,1.8c1,0,1.8-0.8,1.8-1.8c0-0.5-0.2-0.9-0.6-1.3l0-0.1c0.1-0.4-0.2-0.8-0.7-0.8H5.6L5.4,9.8h8.7c0.3,0,0.6-0.2,0.7-0.5L16,3.5C16.1,3.1,15.8,2.7,15.3,2.7z M5.8,14c-0.4,0-0.7-0.3-0.7-0.7c0-0.4,0.3-0.7,0.7-0.7c0.4,0,0.7,0.3,0.7,0.7C6.5,13.7,6.1,14,5.8,14z M12.9,14c-0.4,0-0.7-0.3-0.7-0.7c0-0.4,0.3-0.7,0.7-0.7c0.4,0,0.7,0.3,0.7,0.7C13.6,13.7,13.3,14,12.9,14z M13.5,8.4H5.1L4.3,4h10.3L13.5,8.4z"/>
</svg>
