<svg width="28" height="21" viewBox="0 0 28 21" fill="none" xmlns="http://www.w3.org/2000/svg">
<path d="M27.1562 15.25H26.125V10.6094C26.125 9.92188 25.8242 9.19141 25.3086 8.67578L21.6992 5.06641C21.1836 4.55078 20.4961 4.25 19.7656 4.25H17.875V2.14453C17.875 1.02734 16.8867 0.125 15.7266 0.125H2.10547C0.945312 0.125 0 1.02734 0 2.14453V14.6484C0 15.7656 0.945312 16.625 2.10547 16.625H2.79297C2.75 16.8828 2.75 17.0977 2.75 17.3125C2.75 19.2461 4.25391 20.75 6.1875 20.75C8.07812 20.75 9.625 19.2461 9.625 17.3125C9.625 17.0977 9.58203 16.8828 9.53906 16.625H17.918C17.875 16.8828 17.875 17.0977 17.875 17.3125C17.875 19.2461 19.3789 20.75 21.3125 20.75C23.2031 20.75 24.75 19.2461 24.75 17.3125C24.75 17.0977 24.707 16.8828 24.6641 16.625H27.1562C27.3281 16.625 27.5 16.4961 27.5 16.2812V15.5938C27.5 15.4219 27.3281 15.25 27.1562 15.25ZM19.7656 5.625C20.1094 5.625 20.4531 5.79688 20.7109 6.05469L24.3203 9.66406C24.3633 9.70703 24.3633 9.75 24.4062 9.79297H17.875V5.66797H19.7656V5.625ZM6.1875 19.375C5.02734 19.375 4.125 18.4727 4.125 17.3125C4.125 16.1953 5.02734 15.25 6.1875 15.25C7.30469 15.25 8.25 16.1953 8.25 17.3125C8.25 18.4727 7.30469 19.375 6.1875 19.375ZM8.89453 15.25C8.29297 14.4336 7.30469 13.875 6.1875 13.875C5.07031 13.875 4.08203 14.4336 3.4375 15.25H2.10547C1.67578 15.25 1.375 14.9922 1.375 14.6484V2.14453C1.375 1.80078 1.67578 1.5 2.10547 1.5H15.7266C16.1562 1.5 16.5 1.80078 16.5 2.14453V15.25H8.89453ZM21.3125 19.375C20.1523 19.375 19.25 18.4727 19.25 17.3125C19.25 16.1953 20.1523 15.25 21.3125 15.25C22.4297 15.25 23.375 16.1953 23.375 17.3125C23.375 18.4727 22.4297 19.375 21.3125 19.375ZM21.3125 13.875C20.1523 13.875 19.207 14.4336 18.5625 15.25H17.875V11.125H24.75V15.25H24.0195C23.418 14.4336 22.4297 13.875 21.3125 13.875Z" fill="#497CFF"/>
<path d="M27.1562 15.25H26.125V10.6094C26.125 9.92188 25.8242 9.19141 25.3086 8.67578L21.6992 5.06641C21.1836 4.55078 20.4961 4.25 19.7656 4.25H17.875V2.14453C17.875 1.02734 16.8867 0.125 15.7266 0.125H2.10547C0.945312 0.125 0 1.02734 0 2.14453V14.6484C0 15.7656 0.945312 16.625 2.10547 16.625H2.79297C2.75 16.8828 2.75 17.0977 2.75 17.3125C2.75 19.2461 4.25391 20.75 6.1875 20.75C8.07812 20.75 9.625 19.2461 9.625 17.3125C9.625 17.0977 9.58203 16.8828 9.53906 16.625H17.918C17.875 16.8828 17.875 17.0977 17.875 17.3125C17.875 19.2461 19.3789 20.75 21.3125 20.75C23.2031 20.75 24.75 19.2461 24.75 17.3125C24.75 17.0977 24.707 16.8828 24.6641 16.625H27.1562C27.3281 16.625 27.5 16.4961 27.5 16.2812V15.5938C27.5 15.4219 27.3281 15.25 27.1562 15.25ZM19.7656 5.625C20.1094 5.625 20.4531 5.79688 20.7109 6.05469L24.3203 9.66406C24.3633 9.70703 24.3633 9.75 24.4062 9.79297H17.875V5.66797H19.7656V5.625ZM6.1875 19.375C5.02734 19.375 4.125 18.4727 4.125 17.3125C4.125 16.1953 5.02734 15.25 6.1875 15.25C7.30469 15.25 8.25 16.1953 8.25 17.3125C8.25 18.4727 7.30469 19.375 6.1875 19.375ZM8.89453 15.25C8.29297 14.4336 7.30469 13.875 6.1875 13.875C5.07031 13.875 4.08203 14.4336 3.4375 15.25H2.10547C1.67578 15.25 1.375 14.9922 1.375 14.6484V2.14453C1.375 1.80078 1.67578 1.5 2.10547 1.5H15.7266C16.1562 1.5 16.5 1.80078 16.5 2.14453V15.25H8.89453ZM21.3125 19.375C20.1523 19.375 19.25 18.4727 19.25 17.3125C19.25 16.1953 20.1523 15.25 21.3125 15.25C22.4297 15.25 23.375 16.1953 23.375 17.3125C23.375 18.4727 22.4297 19.375 21.3125 19.375ZM21.3125 13.875C20.1523 13.875 19.207 14.4336 18.5625 15.25H17.875V11.125H24.75V15.25H24.0195C23.418 14.4336 22.4297 13.875 21.3125 13.875Z" fill="#0253BC"/>
<path d="M27.1562 15.25H26.125V10.6094C26.125 9.92188 25.8242 9.19141 25.3086 8.67578L21.6992 5.06641C21.1836 4.55078 20.4961 4.25 19.7656 4.25H17.875V2.14453C17.875 1.02734 16.8867 0.125 15.7266 0.125H2.10547C0.945312 0.125 0 1.02734 0 2.14453V14.6484C0 15.7656 0.945312 16.625 2.10547 16.625H2.79297C2.75 16.8828 2.75 17.0977 2.75 17.3125C2.75 19.2461 4.25391 20.75 6.1875 20.75C8.07812 20.75 9.625 19.2461 9.625 17.3125C9.625 17.0977 9.58203 16.8828 9.53906 16.625H17.918C17.875 16.8828 17.875 17.0977 17.875 17.3125C17.875 19.2461 19.3789 20.75 21.3125 20.75C23.2031 20.75 24.75 19.2461 24.75 17.3125C24.75 17.0977 24.707 16.8828 24.6641 16.625H27.1562C27.3281 16.625 27.5 16.4961 27.5 16.2812V15.5938C27.5 15.4219 27.3281 15.25 27.1562 15.25ZM19.7656 5.625C20.1094 5.625 20.4531 5.79688 20.7109 6.05469L24.3203 9.66406C24.3633 9.70703 24.3633 9.75 24.4062 9.79297H17.875V5.66797H19.7656V5.625ZM6.1875 19.375C5.02734 19.375 4.125 18.4727 4.125 17.3125C4.125 16.1953 5.02734 15.25 6.1875 15.25C7.30469 15.25 8.25 16.1953 8.25 17.3125C8.25 18.4727 7.30469 19.375 6.1875 19.375ZM8.89453 15.25C8.29297 14.4336 7.30469 13.875 6.1875 13.875C5.07031 13.875 4.08203 14.4336 3.4375 15.25H2.10547C1.67578 15.25 1.375 14.9922 1.375 14.6484V2.14453C1.375 1.80078 1.67578 1.5 2.10547 1.5H15.7266C16.1562 1.5 16.5 1.80078 16.5 2.14453V15.25H8.89453ZM21.3125 19.375C20.1523 19.375 19.25 18.4727 19.25 17.3125C19.25 16.1953 20.1523 15.25 21.3125 15.25C22.4297 15.25 23.375 16.1953 23.375 17.3125C23.375 18.4727 22.4297 19.375 21.3125 19.375ZM21.3125 13.875C20.1523 13.875 19.207 14.4336 18.5625 15.25H17.875V11.125H24.75V15.25H24.0195C23.418 14.4336 22.4297 13.875 21.3125 13.875Z" fill="#3081EB"/>
</svg>
