<svg width="26" height="16" viewBox="0 0 26 16" fill="none" xmlns="http://www.w3.org/2000/svg">
<path d="M16.2623 1.71075H9.33936V14.2893H16.2623V1.71075Z" fill="#FF5F00"/>
<path d="M9.77883 8.0022C9.77755 6.79062 10.049 5.59464 10.5725 4.5048C11.0961 3.41497 11.8581 2.45987 12.8007 1.71182C11.6335 0.78442 10.2318 0.207726 8.75577 0.0476467C7.27972 -0.112432 5.78891 0.150563 4.45371 0.806574C3.11851 1.46259 1.99279 2.48515 1.20522 3.75739C0.417652 5.02963 0 6.50022 0 8.00109C0 9.50196 0.417652 10.9725 1.20522 12.2448C1.99279 13.517 3.11851 14.5396 4.45371 15.1956C5.78891 15.8516 7.27972 16.1146 8.75577 15.9545C10.2318 15.7945 11.6335 15.2178 12.8007 14.2904C11.8583 13.5425 11.0965 12.5878 10.573 11.4984C10.0495 10.409 9.77789 9.2134 9.77883 8.0022Z" fill="#EB001B"/>
<path d="M25.6027 8.00111C25.6026 9.50209 25.1849 10.9728 24.3972 12.2451C23.6095 13.5173 22.4836 14.5399 21.1482 15.1958C19.8129 15.8517 18.3219 16.1146 16.8458 15.9542C15.3696 15.7939 13.9679 15.217 12.8008 14.2893C13.7428 13.5408 14.5044 12.5858 15.0281 11.4963C15.5517 10.4068 15.8239 9.21132 15.8239 8C15.8239 6.78868 15.5517 5.59318 15.0281 4.5037C14.5044 3.41422 13.7428 2.45921 12.8008 1.71073C13.9679 0.783041 15.3696 0.206066 16.8458 0.0457573C18.3219 -0.114552 19.8129 0.148274 21.1482 0.804192C22.4836 1.46011 23.6095 2.48265 24.3972 3.75494C25.1849 5.02722 25.6026 6.49791 25.6027 7.99889V8.00111Z" fill="#F79E1B"/>
<path d="M24.8467 12.9561V12.6983H24.95V12.645H24.6885V12.6983H24.8006V12.9561H24.8467ZM25.3544 12.9561V12.645H25.2753L25.183 12.8672L25.0907 12.645H25.0203V12.9561H25.0775V12.7228L25.1632 12.925H25.2225L25.3082 12.7228V12.9583L25.3544 12.9561Z" fill="#F79E1B"/>
</svg>
