<svg width="57" height="17" viewBox="0 0 57 17" fill="none" xmlns="http://www.w3.org/2000/svg">
<path d="M40.52 7.62964V16.0317H45.6318V11.3055H50.7764C53.4634 11.3055 55.7572 9.77938 56.6419 7.62964H40.52Z" fill="#006848"/>
<path d="M40.2905 0C40.3069 0.426667 40.3724 0.853333 40.4708 1.24718C40.4871 1.32923 40.5199 1.42769 40.5363 1.50974C40.5527 1.54256 40.5527 1.57538 40.5691 1.62462C41.4866 4.52923 44.1899 6.62974 47.3848 6.62974H56.822C56.8875 6.30154 56.9203 5.97333 56.9203 5.62872C56.9203 3.98769 56.2158 2.51077 55.0853 1.47692C54.0859 0.557949 52.7588 0 51.2842 0H40.2905V0Z" fill="url(#paint0_linear)"/>
<path d="M31.3437 1.69026L27.772 9.45231H27.4116V0H22.3325V16H26.6415C27.772 16 28.8042 15.3436 29.2793 14.3097L32.8511 6.54769H33.2115V16H38.2906V0H33.9816C32.8511 0 31.8189 0.65641 31.3437 1.69026Z" fill="#006848"/>
<path d="M7.86433 2.10051L9.99425 9.45231H10.3547L12.4682 2.10051C12.8287 0.853333 13.9592 0 15.2535 0H20.3326V16H15.2535V6.54769H14.8931L11.9767 16H8.35585L5.43949 6.54769H5.07904V16H0V0H5.07904C6.37338 0 7.50388 0.853333 7.86433 2.10051Z" fill="#006848"/>
<defs>
<linearGradient id="paint0_linear" x1="40.2877" y1="3.31689" x2="56.9153" y2="3.31689" gradientUnits="userSpaceOnUse">
<stop stop-color="#02AFFF"/>
<stop offset="1" stop-color="#1F5BDE"/>
</linearGradient>
</defs>
</svg>
