<svg width="24" height="24" viewBox="0 0 24 24" fill="none" xmlns="http://www.w3.org/2000/svg">
<path d="M12 4.89389e-05C18.6274 4.89389e-05 24 5.37263 24 12C24 18.6274 18.6274 23.9999 12 23.9999C5.37264 23.9999 4.97744e-05 18.6274 4.97744e-05 12C-0.018808 5.39142 5.32317 0.0189067 11.9317 4.89389e-05C11.9545 -1.6313e-05 11.9772 -1.6313e-05 12 4.89389e-05Z" fill="#497CFF"/>
<path d="M12 4.89389e-05C18.6274 4.89389e-05 24 5.37263 24 12C24 18.6274 18.6274 23.9999 12 23.9999C5.37264 23.9999 4.97744e-05 18.6274 4.97744e-05 12C-0.018808 5.39142 5.32317 0.0189067 11.9317 4.89389e-05C11.9545 -1.6313e-05 11.9772 -1.6313e-05 12 4.89389e-05Z" fill="#0253BC"/>
<path d="M12 4.89389e-05C18.6274 4.89389e-05 24 5.37263 24 12C24 18.6274 18.6274 23.9999 12 23.9999C5.37264 23.9999 4.97744e-05 18.6274 4.97744e-05 12C-0.018808 5.39142 5.32317 0.0189067 11.9317 4.89389e-05C11.9545 -1.6313e-05 11.9772 -1.6313e-05 12 4.89389e-05Z" fill="#3081EB"/>
<path d="M18.647 8.69253L10.1243 17.2152L5.35156 12.4766L7.29477 10.5676L10.1243 13.363L16.7038 6.78345L18.647 8.69253Z" fill="white"/>
</svg>
