<svg width="25" height="20" viewBox="0 0 25 20" fill="none" xmlns="http://www.w3.org/2000/svg">
<path d="M22.6875 0.125H2.0625C0.902344 0.125 0 1.07031 0 2.1875V17.3125C0 18.4727 0.902344 19.375 2.0625 19.375H22.6875C23.8047 19.375 24.75 18.4727 24.75 17.3125V2.1875C24.75 1.07031 23.8047 0.125 22.6875 0.125ZM2.0625 1.5H22.6875C23.0312 1.5 23.375 1.84375 23.375 2.1875V4.25H1.375V2.1875C1.375 1.84375 1.67578 1.5 2.0625 1.5ZM22.6875 18H2.0625C1.67578 18 1.375 17.6992 1.375 17.3125V8.375H23.375V17.3125C23.375 17.6992 23.0312 18 22.6875 18ZM8.25 14.3906C8.25 14.1328 7.99219 13.875 7.73438 13.875H4.64062C4.33984 13.875 4.125 14.1328 4.125 14.3906V14.7344C4.125 15.0352 4.33984 15.25 4.64062 15.25H7.73438C7.99219 15.25 8.25 15.0352 8.25 14.7344V14.3906ZM16.5 14.3906C16.5 14.1328 16.2422 13.875 15.9844 13.875H10.1406C9.83984 13.875 9.625 14.1328 9.625 14.3906V14.7344C9.625 15.0352 9.83984 15.25 10.1406 15.25H15.9844C16.2422 15.25 16.5 15.0352 16.5 14.7344V14.3906Z" fill="#497CFF"/>
<path d="M22.6875 0.125H2.0625C0.902344 0.125 0 1.07031 0 2.1875V17.3125C0 18.4727 0.902344 19.375 2.0625 19.375H22.6875C23.8047 19.375 24.75 18.4727 24.75 17.3125V2.1875C24.75 1.07031 23.8047 0.125 22.6875 0.125ZM2.0625 1.5H22.6875C23.0312 1.5 23.375 1.84375 23.375 2.1875V4.25H1.375V2.1875C1.375 1.84375 1.67578 1.5 2.0625 1.5ZM22.6875 18H2.0625C1.67578 18 1.375 17.6992 1.375 17.3125V8.375H23.375V17.3125C23.375 17.6992 23.0312 18 22.6875 18ZM8.25 14.3906C8.25 14.1328 7.99219 13.875 7.73438 13.875H4.64062C4.33984 13.875 4.125 14.1328 4.125 14.3906V14.7344C4.125 15.0352 4.33984 15.25 4.64062 15.25H7.73438C7.99219 15.25 8.25 15.0352 8.25 14.7344V14.3906ZM16.5 14.3906C16.5 14.1328 16.2422 13.875 15.9844 13.875H10.1406C9.83984 13.875 9.625 14.1328 9.625 14.3906V14.7344C9.625 15.0352 9.83984 15.25 10.1406 15.25H15.9844C16.2422 15.25 16.5 15.0352 16.5 14.7344V14.3906Z" fill="#0253BC"/>
<path d="M22.6875 0.125H2.0625C0.902344 0.125 0 1.07031 0 2.1875V17.3125C0 18.4727 0.902344 19.375 2.0625 19.375H22.6875C23.8047 19.375 24.75 18.4727 24.75 17.3125V2.1875C24.75 1.07031 23.8047 0.125 22.6875 0.125ZM2.0625 1.5H22.6875C23.0312 1.5 23.375 1.84375 23.375 2.1875V4.25H1.375V2.1875C1.375 1.84375 1.67578 1.5 2.0625 1.5ZM22.6875 18H2.0625C1.67578 18 1.375 17.6992 1.375 17.3125V8.375H23.375V17.3125C23.375 17.6992 23.0312 18 22.6875 18ZM8.25 14.3906C8.25 14.1328 7.99219 13.875 7.73438 13.875H4.64062C4.33984 13.875 4.125 14.1328 4.125 14.3906V14.7344C4.125 15.0352 4.33984 15.25 4.64062 15.25H7.73438C7.99219 15.25 8.25 15.0352 8.25 14.7344V14.3906ZM16.5 14.3906C16.5 14.1328 16.2422 13.875 15.9844 13.875H10.1406C9.83984 13.875 9.625 14.1328 9.625 14.3906V14.7344C9.625 15.0352 9.83984 15.25 10.1406 15.25H15.9844C16.2422 15.25 16.5 15.0352 16.5 14.7344V14.3906Z" fill="#3081EB"/>
</svg>
