<svg xmlns="http://www.w3.org/2000/svg" viewBox="0 0 16 16">
	<path d="M10.8,9.5C9.9,9.5,9.5,10,8,10c-1.5,0-1.9-0.5-2.8-0.5C2.9,9.5,1,11.4,1,13.7v0.8C1,15.3,1.7,16,2.5,16h11c0.8,0,1.5-0.7,1.5-1.5v-0.8C15,11.4,13.1,9.5,10.8,9.5z M13.5,14.5h-11v-0.8c0-1.5,1.2-2.7,2.7-2.7c0.5,0,1.2,0.5,2.8,0.5c1.6,0,2.3-0.5,2.8-0.5c1.5,0,2.7,1.2,2.7,2.7V14.5z M8,9c2.5,0,4.5-2,4.5-4.5C12.5,2,10.5,0,8,0C5.5,0,3.5,2,3.5,4.5C3.5,7,5.5,9,8,9z M8,1.5c1.6,0,3,1.4,3,3c0,1.7-1.4,3-3,3c-1.7,0-3-1.3-3-3C5,2.9,6.3,1.5,8,1.5z"/>
</svg>
