<svg width="11" height="11" viewBox="0 0 11 11" fill="none" xmlns="http://www.w3.org/2000/svg">
<path d="M10.715 9.37272C11.095 9.75312 11.095 10.3449 10.715 10.7253C10.5249 10.9155 10.2927 11 10.0393 11C9.78599 11 9.55375 10.9155 9.36373 10.7253L5.5 6.85783L1.63627 10.7253C1.44625 10.9155 1.21401 11 0.960653 11C0.707294 11 0.475058 10.9155 0.285039 10.7253C-0.0949993 10.3449 -0.0949993 9.75312 0.285039 9.37272L4.14875 5.50528L0.285039 1.63785C-0.0949993 1.25745 -0.0949993 0.665703 0.285039 0.2853C0.665077 -0.0951034 1.25623 -0.0951034 1.63627 0.2853L5.5 4.15273L9.36373 0.2853C9.74377 -0.0951034 10.3349 -0.0951034 10.715 0.2853C11.095 0.665703 11.095 1.25745 10.715 1.63785L6.85123 5.50528L10.715 9.37272Z" fill="#D8D8D8"/>
</svg>
