<svg width="293" height="205" viewBox="0 0 293 205" fill="none" xmlns="http://www.w3.org/2000/svg">
<rect width="293" height="205" fill="white"/>
<path d="M20 177L25 179.887V174.113L20 177ZM273 177L268 174.113V179.887L273 177ZM24.5 177.5H268.5V176.5H24.5V177.5Z" fill="#D8D8D8"/>
<g>
<path d="M56.5221 79.0559C56.5221 71.8645 48.7941 66.0347 39.2611 66.0347C29.728 66.0347 22 71.8645 22 79.0559C22 86.2473 29.728 92.0771 39.2611 92.0771C48.7941 92.0771 56.5221 86.2473 56.5221 79.0559Z" fill="#D8D8D8"/>
<path d="M53.1925 106.196C53.509 101.446 48.8437 97.268 42.7723 96.8644C36.7008 96.4608 31.5223 99.9843 31.2057 104.734C30.8892 109.484 35.5545 113.662 41.6259 114.066C47.6974 114.469 52.8759 110.946 53.1925 106.196Z" fill="#D8D8D8"/>
<path d="M60.562 123.438C60.562 119.69 56.5335 116.652 51.5642 116.652C46.5949 116.652 42.5664 119.69 42.5664 123.438C42.5664 127.186 46.5949 130.224 51.5642 130.224C56.5335 130.224 60.562 127.186 60.562 123.438Z" fill="#D8D8D8"/>
<path d="M69.6873 136.107C68.9254 133.031 65.0596 131.339 61.0528 132.329C57.046 133.319 54.4156 136.615 55.1775 139.692C55.9394 142.769 59.8053 144.46 63.812 143.471C67.8188 142.481 70.4493 139.184 69.6873 136.107Z" fill="#D8D8D8"/>
<path d="M81.0687 149.397C80.7032 146.331 77.1495 144.233 73.1312 144.711C69.113 145.189 66.1519 148.061 66.5174 151.127C66.8829 154.193 70.4366 156.291 74.4549 155.814C78.4731 155.336 81.4342 152.463 81.0687 149.397Z" fill="#D8D8D8"/>
<path d="M103.346 65.4833C71.3212 54.0392 61.8459 74.1029 60.5605 84.9234C55.7877 115.002 82.5974 163.969 131.441 152.047C133.645 149.296 198.833 126.555 233.171 128.756C260.642 130.516 269.346 107.604 270.264 95.9273C271 88.9999 260.715 61.6319 235.191 62.7323C209.793 63.8272 199.567 88.2246 178.45 100.512C161.556 110.342 146.927 104.608 141.724 100.512C132.543 92.8095 124.28 74.1029 103.346 65.4833Z" fill="#D8D8D8"/>
</g>
<path d="M20 29V181" stroke="#D8D8D8"/>
<path d="M273 29V181" stroke="#D8D8D8"/>
</svg>
