<svg width="14" height="13" viewBox="0 0 14 13" fill="none" xmlns="http://www.w3.org/2000/svg">
<path d="M4.5 2.5L4.5 4.09375L1.5 4.09375C0.65625 4.09375 -1.65284e-07 4.78125 -2.00799e-07 5.59375L-3.22371e-07 8.375C-3.57887e-07 9.1875 0.65625 9.875 1.5 9.875L4.5 9.875L4.5 11.4687C4.5 12.8125 6.09375 13.5 7.03125 12.5312L11.5312 8.03125C12.125 7.46875 12.125 6.5 11.5312 5.90625L7.03125 1.40625C6.09375 0.499999 4.5 1.15625 4.5 2.5ZM10.5 7L6 11.5L6 8.375L1.5 8.375L1.5 5.59375L6 5.59375L6 2.5L10.5 7ZM12.875 1C12.6562 1 12.5 1.15625 12.5 1.375L12.5 12.625C12.5 12.8125 12.6562 13 12.875 13L13.625 13C13.8125 13 14 12.8125 14 12.625L14 1.375C14 1.15625 13.8125 1 13.625 1L12.875 1Z" fill="#2E2E2E"/>
</svg>
