<svg width="22" height="23" viewBox="0 0 22 23" fill="none" xmlns="http://www.w3.org/2000/svg">
<path d="M11 2.125C13.6211 2.125 15.8125 4.31641 15.8125 6.9375C15.8125 9.60156 13.6211 11.75 11 11.75C8.33594 11.75 6.1875 9.60156 6.1875 6.9375C6.1875 4.31641 8.33594 2.125 11 2.125ZM16.5 15.875C18.7344 15.875 20.625 17.7656 20.625 20V21.375H1.375V20C1.375 17.7656 3.22266 15.875 5.5 15.875C9.15234 15.875 8.37891 16.5625 11 16.5625C13.5781 16.5625 12.8047 15.875 16.5 15.875ZM11 0.75C7.5625 0.75 4.8125 3.54297 4.8125 6.9375C4.8125 10.375 7.5625 13.125 11 13.125C14.3945 13.125 17.1875 10.375 17.1875 6.9375C17.1875 3.54297 14.3945 0.75 11 0.75ZM16.5 14.5C12.5039 14.5 13.4492 15.1875 11 15.1875C8.55078 15.1875 9.45312 14.5 5.5 14.5C2.44922 14.5 0 16.9922 0 20V21.375C0 22.1484 0.601562 22.75 1.375 22.75H20.625C21.3555 22.75 22 22.1484 22 21.375V20C22 16.9922 19.5078 14.5 16.5 14.5Z" fill="#497CFF"/>
<path d="M11 2.125C13.6211 2.125 15.8125 4.31641 15.8125 6.9375C15.8125 9.60156 13.6211 11.75 11 11.75C8.33594 11.75 6.1875 9.60156 6.1875 6.9375C6.1875 4.31641 8.33594 2.125 11 2.125ZM16.5 15.875C18.7344 15.875 20.625 17.7656 20.625 20V21.375H1.375V20C1.375 17.7656 3.22266 15.875 5.5 15.875C9.15234 15.875 8.37891 16.5625 11 16.5625C13.5781 16.5625 12.8047 15.875 16.5 15.875ZM11 0.75C7.5625 0.75 4.8125 3.54297 4.8125 6.9375C4.8125 10.375 7.5625 13.125 11 13.125C14.3945 13.125 17.1875 10.375 17.1875 6.9375C17.1875 3.54297 14.3945 0.75 11 0.75ZM16.5 14.5C12.5039 14.5 13.4492 15.1875 11 15.1875C8.55078 15.1875 9.45312 14.5 5.5 14.5C2.44922 14.5 0 16.9922 0 20V21.375C0 22.1484 0.601562 22.75 1.375 22.75H20.625C21.3555 22.75 22 22.1484 22 21.375V20C22 16.9922 19.5078 14.5 16.5 14.5Z" fill="#0253BC"/>
<path d="M11 2.125C13.6211 2.125 15.8125 4.31641 15.8125 6.9375C15.8125 9.60156 13.6211 11.75 11 11.75C8.33594 11.75 6.1875 9.60156 6.1875 6.9375C6.1875 4.31641 8.33594 2.125 11 2.125ZM16.5 15.875C18.7344 15.875 20.625 17.7656 20.625 20V21.375H1.375V20C1.375 17.7656 3.22266 15.875 5.5 15.875C9.15234 15.875 8.37891 16.5625 11 16.5625C13.5781 16.5625 12.8047 15.875 16.5 15.875ZM11 0.75C7.5625 0.75 4.8125 3.54297 4.8125 6.9375C4.8125 10.375 7.5625 13.125 11 13.125C14.3945 13.125 17.1875 10.375 17.1875 6.9375C17.1875 3.54297 14.3945 0.75 11 0.75ZM16.5 14.5C12.5039 14.5 13.4492 15.1875 11 15.1875C8.55078 15.1875 9.45312 14.5 5.5 14.5C2.44922 14.5 0 16.9922 0 20V21.375C0 22.1484 0.601562 22.75 1.375 22.75H20.625C21.3555 22.75 22 22.1484 22 21.375V20C22 16.9922 19.5078 14.5 16.5 14.5Z" fill="#3081EB"/>
</svg>
