<svg width="50" height="16" viewBox="0 0 50 16" fill="none" xmlns="http://www.w3.org/2000/svg">
<mask id="mask0" mask-type="alpha" maskUnits="userSpaceOnUse" x="0" y="0" width="50" height="16">
<path d="M0 0.121826H49.0625V15.9804H0" fill="white"/>
</mask>
<g mask="url(#mask0)">
<path fill-rule="evenodd" clip-rule="evenodd" d="M17.2861 15.7711L19.772 0.400024H23.7462L21.2603 15.7711H17.2861Z" fill="#005CA3"/>
<path fill-rule="evenodd" clip-rule="evenodd" d="M35.6683 0.775867C34.8833 0.465336 33.6405 0.121826 32.1032 0.121826C28.1783 0.121826 25.4143 2.21489 25.3979 5.20721C25.3653 7.41489 27.3767 8.64134 28.8814 9.37734C30.4187 10.1293 30.9421 10.6198 30.9421 11.2905C30.9258 12.3207 29.6993 12.7951 28.5545 12.7951C26.9682 12.7951 26.1176 12.5499 24.8255 11.9772L24.3021 11.7319L23.7463 15.1824C24.6786 15.6075 26.3955 15.9837 28.1783 16C32.3485 16 35.0632 13.9396 35.0959 10.7511C35.1122 9.00085 34.0494 7.66011 31.7597 6.5646C30.3697 5.86158 29.5194 5.38713 29.5194 4.66779C29.5357 4.01374 30.2387 3.34338 31.8087 3.34338C33.1008 3.31072 34.0494 3.62125 34.769 3.93211L35.1289 4.09538L35.6683 0.775867Z" fill="#005CA3"/>
</g>
<path fill-rule="evenodd" clip-rule="evenodd" d="M45.8569 0.400024H42.7822C41.8337 0.400024 41.114 0.677902 40.7052 1.67513L34.8015 15.7711H38.9716C38.9716 15.7711 39.6587 13.874 39.8059 13.4652H44.9083C45.0229 14.0049 45.3827 15.7711 45.3827 15.7711H49.0624L45.8569 0.400024ZM40.9504 10.3256C41.2776 9.44264 42.537 6.02484 42.537 6.02484C42.5207 6.05782 42.8642 5.12558 43.0605 4.55317L43.3383 5.87758C43.3383 5.87758 44.0907 9.55725 44.2542 10.3256H40.9504Z" fill="#005CA3"/>
<path fill-rule="evenodd" clip-rule="evenodd" d="M13.9663 0.400024L10.0741 10.8817L9.64891 8.75562C8.92924 6.30304 6.67258 3.6379 4.15405 2.31317L7.71911 15.7548H11.9222L18.1694 0.400024H13.9663Z" fill="#005CA3"/>
<path fill-rule="evenodd" clip-rule="evenodd" d="M6.46008 0.400024H0.0653061L0 0.710555C4.98808 1.98598 8.29159 5.06027 9.64898 8.75562L8.25894 1.69145C8.03004 0.710555 7.32669 0.432351 6.46008 0.400024Z" fill="#FFAD30"/>
</svg>
