<svg version="1.0" xmlns="http://www.w3.org/2000/svg" width="1280" height="1280" viewBox="0 0 960 960"><path d="M453.5 11.6c-2.2.2-9.8.9-17 1.5-62 5.1-121.1 22-178 50.9C135.7 126.2 45.8 238.5 13.6 370-17 495 5 625.6 74.8 732.5c27.8 42.7 60.6 78.7 100.7 111C243 897.7 324.9 933.1 410 944.9c27.5 3.8 39.2 4.6 70 4.6 36.2 0 64.1-2.6 94.5-8.6 116.4-23.2 219.1-86.8 290.5-180 85.5-111.7 115.5-258.9 80.5-395.4-30.3-118.2-106.7-220.2-213-284.5C671 43.8 603.7 21.4 528.6 13.4c-13.2-1.4-66.1-2.7-75.1-1.8zm26.1 160c2.8 1.1 22.2 19.9 71.4 69l67.5 67.4 64.5-65.5c43.3-44 65.8-66.2 68.6-67.5 5.3-2.6 10.9-2.5 16.4.2 5.6 2.9 8.1 6.4 8.7 12.1 1.2 10.8 5.4 6-67.3 78.7-36.5 36.6-66.4 67-66.4 67.5 0 .6 30.4 31.4 67.6 68.5 37.5 37.5 68.4 69.1 69.5 71.2 2.2 4.2 2.4 8 .6 12.1-.7 1.5-31.9 33.5-69.4 71-37.6 37.5-68.3 68.7-68.3 69.3 0 .6 29.5 30.2 65.6 65.9 70 69.2 71.2 70.6 70.1 78.6-.3 2.1-1.3 5.5-2.3 7.6-3.7 7.3-15.5 10.6-23.7 6.4-2.1-1.1-31.1-29.5-68.3-67-35.5-35.8-65.1-65.1-65.8-65.1-.6 0-31 29.9-67.6 66.5-73.8 73.9-72.8 73-83.7 70.4-4.6-1.1-7.9-4.2-73-69.3L326 651.5l-65.7 65.7c-36.2 36.1-67.2 66.3-69 67.2-4.2 2.1-12.9 2-17.3-.2-6.8-3.4-10.2-12-8-20.3 1-4 7.7-11 67.8-71.2l66.7-66.7-67.1-67.3c-67.5-67.6-71.4-71.9-71.4-78.6 0-8.7-.7-7.9 70.5-79.1l67.5-67.5-66.4-66.5c-61.7-61.9-66.4-66.8-67.6-71.2-1-3.7-1-5.8-.1-9.4 1.6-6.4 3.6-9 8.5-11.4 5.2-2.5 10.9-2.5 16.1-.1 2.7 1.3 25 23 69.5 67.5l65.5 65.6 66.7-66.7c45.2-45.2 68-67.4 71-68.8 5.2-2.7 11.3-3 16.4-.9z"/><path d="M409.5 275l-60 60 60 60c33 33 60.4 60 61 60 .6 0 28-27 61-60l60-60-60-60c-33-33-60.4-60-61-60-.6 0-28 27-61 60zm-146 146l-60 60 60.5 60.5 60.5 60.5 60.2-60.2 60.3-60.3-60.2-60.2C351.6 388.1 324.3 361 324 361c-.3 0-27.5 27-60.5 60zm291 0l-60 60 60 60c33 33 60.4 60 61 60 1.3 0 119.5-118.2 119.5-119.5 0-1-119-120.5-120-120.5-.3 0-27.5 27-60.5 60zM410 565.5L349.5 626l60 60c33 33 60.4 60 61 60 .6 0 28-27 61-60l60-60-60.5-60.5-60.5-60.5-60.5 60.5z"/></svg>