<?xml version="1.0" standalone="no"?>
<!DOCTYPE svg PUBLIC "-//W3C//DTD SVG 20010904//EN"
 "http://www.w3.org/TR/2001/REC-SVG-20010904/DTD/svg10.dtd">
<svg version="1.0" xmlns="http://www.w3.org/2000/svg"
 width="960.000000pt" height="960.000000pt" viewBox="0 0 960.000000 960.000000"
 preserveAspectRatio="xMidYMid meet">
<metadata>
Created by potrace 1.11, written by Peter Selinger 2001-2013
</metadata>
<g transform="translate(0.000000,960.000000) scale(0.100000,-0.100000)"
fill="#000000" stroke="none">
<path d="M4535 9484 c-22 -2 -98 -9 -170 -15 -620 -51 -1211 -220 -1780 -509
-1228 -622 -2127 -1745 -2449 -3060 -306 -1250 -86 -2556 612 -3625 278 -427
606 -787 1007 -1110 675 -542 1494 -896 2345 -1014 275 -38 392 -46 700 -46
362 0 641 26 945 86 1164 232 2191 868 2905 1800 855 1117 1155 2589 805 3954
-303 1182 -1067 2202 -2130 2845 -615 372 -1288 596 -2039 676 -132 14 -661
27 -751 18z m261 -1600 c28 -11 222 -199 714 -690 l675 -674 645 655 c433 440
658 662 686 675 53 26 109 25 164 -2 56 -29 81 -64 87 -121 12 -108 54 -60
-673 -787 -365 -366 -664 -670 -664 -675 0 -6 304 -314 676 -685 375 -375 684
-691 695 -712 22 -42 24 -80 6 -121 -7 -15 -319 -335 -694 -710 -376 -375
-683 -687 -683 -693 0 -6 295 -302 656 -659 700 -692 712 -706 701 -786 -3
-21 -13 -55 -23 -76 -37 -73 -155 -106 -237 -64 -21 11 -311 295 -683 670
-355 358 -651 651 -658 651 -6 0 -310 -299 -676 -665 -738 -739 -728 -730
-837 -704 -46 11 -79 42 -730 693 l-683 681 -657 -657 c-362 -361 -672 -663
-690 -672 -42 -21 -129 -20 -173 2 -68 34 -102 120 -80 203 10 40 77 110 678
712 l667 667 -671 673 c-675 676 -714 719 -714 786 0 87 -7 79 705 791 l675
675 -664 665 c-617 619 -664 668 -676 712 -10 37 -10 58 -1 94 16 64 36 90 85
114 52 25 109 25 161 1 27 -13 250 -230 695 -675 l655 -656 667 667 c452 452
680 674 710 688 52 27 113 30 164 9z"/>
<path d="M4095 6850 l-600 -600 600 -600 c330 -330 604 -600 610 -600 6 0 280
270 610 600 l600 600 -600 600 c-330 330 -604 600 -610 600 -6 0 -280 -270
-610 -600z"/>
<path d="M2635 5390 l-600 -600 605 -605 605 -605 602 602 603 603 -602 602
c-332 332 -605 603 -608 603 -3 0 -275 -270 -605 -600z"/>
<path d="M5545 5390 l-600 -600 600 -600 c330 -330 604 -600 610 -600 13 0
1195 1182 1195 1195 0 10 -1190 1205 -1200 1205 -3 0 -275 -270 -605 -600z"/>
<path d="M4100 3945 l-605 -605 600 -600 c330 -330 604 -600 610 -600 6 0 280
270 610 600 l600 600 -605 605 -605 605 -605 -605z"/>
</g>
</svg>
