<svg width="417" height="217" viewBox="0 0 417 217" fill="none" xmlns="http://www.w3.org/2000/svg">
<g clip-path="url(#clip0)">
<rect width="417" height="217" fill="white"/>
<mask id="mask0" mask-type="alpha" maskUnits="userSpaceOnUse" x="3" y="-2" width="82" height="215">
<path d="M39.5001 93C34.0001 75 27.5002 25.5 27.5002 -0.500031C43.8335 -1.50003 77.0002 -2.90003 79.0002 -0.500031C81.0002 1.89997 81.8335 62.8333 82.0002 93L79.0002 129.5C78.8335 137.333 78.6002 153.7 79.0002 156.5C79.4002 159.3 81.5001 168.5 83.0002 174.5C83.3335 176.833 84.5 182 84.0001 184.5C83.5229 186.886 78.0996 191.76 74.5 192C66.9998 192.5 52.5 207.5 46.5 210C35.3333 211.833 11.7002 215.2 6.50016 210C1.30016 204.8 4.50005 198.5 8.50016 198C24.4994 196 38.5002 179.5 43.5002 174.5C47.5002 170.5 51 162 51 156.5L46.5002 128.5C42.5001 114 42.7965 103.788 39.5001 93Z" fill="white"/>
</mask>
<g mask="url(#mask0)">
<rect x="-2" y="175" width="119" height="70" fill="#497CFF"/>
<rect x="-2" y="175" width="119" height="70" fill="#0253BC"/>
<rect x="-2" y="175" width="119" height="70" fill="#3081EB"/>
</g>
<path d="M39.5001 93C34.0001 75 27.5002 25.5 27.5002 -0.500031C43.8335 -1.50003 77.0002 -2.90003 79.0002 -0.500031C81.0002 1.89997 81.8335 62.8333 82.0002 93L79.0002 129.5C78.8335 137.333 78.6002 153.7 79.0002 156.5C79.4002 159.3 81.5001 168.5 83.0002 174.5C83.3335 176.833 84.5 182 84.0001 184.5C83.5229 186.886 78.0996 191.76 74.5 192C66.9998 192.5 52.5 207.5 46.5 210C35.3333 211.833 11.7002 215.2 6.50016 210C1.30016 204.8 4.50005 198.5 8.50016 198C24.4994 196 38.5002 179.5 43.5002 174.5C47.5002 170.5 51 162 51 156.5L46.5002 128.5C42.5001 114 42.7965 103.788 39.5001 93Z" stroke="#D8D8D8"/>
<path d="M371.43 39.2727H365.818V48H367.399V40.598H371.43V39.2727ZM374.605 48.1278C376.522 48.1278 377.741 46.777 377.741 44.7528C377.741 42.7244 376.522 41.3693 374.605 41.3693C372.687 41.3693 371.468 42.7244 371.468 44.7528C371.468 46.777 372.687 48.1278 374.605 48.1278ZM374.613 46.892C373.552 46.892 373.032 45.946 373.032 44.7486C373.032 43.5511 373.552 42.5923 374.613 42.5923C375.657 42.5923 376.177 43.5511 376.177 44.7486C376.177 45.946 375.657 46.892 374.613 46.892ZM378.599 48H379.076C380.482 48 381.117 47.0114 381.219 44.8295L381.322 42.7202H383.201V48H384.692V41.4545H379.92L379.805 44.3523C379.732 46.1889 379.494 46.7301 378.816 46.7301H378.59L378.599 48ZM387.733 43.5852V41.4545H386.246V48H389.22C390.886 48 391.845 47.0795 391.849 45.7926C391.845 44.4716 390.886 43.5852 389.22 43.5852H387.733ZM387.733 44.8509H389.22C389.889 44.8509 390.371 45.2472 390.371 45.8139C390.371 46.3551 389.889 46.7344 389.22 46.7344H387.733V44.8509ZM396.142 50.2244H397.689V48.1278C399.615 48.1278 400.94 46.7642 400.94 44.7528C400.94 42.7372 399.615 41.3693 397.689 41.3693V39.2727H396.142V41.3693C394.216 41.3693 392.89 42.7372 392.89 44.7528C392.89 46.7642 394.216 48.1278 396.142 48.1278V50.2244ZM396.142 46.8835C395.051 46.8835 394.467 45.9205 394.467 44.7528C394.467 43.5852 395.042 42.6136 396.142 42.6136V46.8835ZM397.689 46.8835V42.6136C398.788 42.6136 399.359 43.5852 399.359 44.7528C399.359 45.9205 398.788 46.8835 397.689 46.8835ZM403.729 43.5852V41.4545H402.242V48H405.216C406.882 48 407.841 47.0795 407.846 45.7926C407.841 44.4716 406.882 43.5852 405.216 43.5852H403.729ZM408.659 48H410.202V41.4545H408.659V48ZM403.729 44.8509H405.216C405.885 44.8509 406.367 45.2472 406.367 45.8139C406.367 46.3551 405.885 46.7344 405.216 46.7344H403.729V44.8509Z" fill="#D8D8D8"/>
<path d="M320.595 116H324.128C326.126 116 327.107 114.982 327.107 113.622C327.107 112.301 326.169 111.526 325.24 111.479V111.393C326.092 111.193 326.766 110.597 326.766 109.536C326.766 108.236 325.828 107.273 323.936 107.273H320.595V116ZM322.176 114.679V112.122H323.919C324.895 112.122 325.5 112.719 325.5 113.499C325.5 114.193 325.023 114.679 323.876 114.679H322.176ZM322.176 110.984V108.577H323.774C324.703 108.577 325.185 109.067 325.185 109.74C325.185 110.507 324.562 110.984 323.74 110.984H322.176ZM329.901 111.585V109.455H328.414V116H331.388C333.054 116 334.013 115.08 334.017 113.793C334.013 112.472 333.054 111.585 331.388 111.585H329.901ZM334.831 116H336.374V109.455H334.831V116ZM329.901 112.851H331.388C332.057 112.851 332.539 113.247 332.539 113.814C332.539 114.355 332.057 114.734 331.388 114.734H329.901V112.851ZM340.82 116.128C342.464 116.128 343.513 115.152 343.624 113.763H342.149C342.017 114.466 341.51 114.871 340.832 114.871C339.869 114.871 339.247 114.065 339.247 112.727C339.247 111.406 339.882 110.614 340.832 110.614C341.574 110.614 342.03 111.091 342.149 111.722H343.624C343.517 110.303 342.409 109.369 340.811 109.369C338.893 109.369 337.683 110.754 337.683 112.753C337.683 114.734 338.864 116.128 340.82 116.128ZM347.745 116.128C349.663 116.128 350.882 114.777 350.882 112.753C350.882 110.724 349.663 109.369 347.745 109.369C345.828 109.369 344.609 110.724 344.609 112.753C344.609 114.777 345.828 116.128 347.745 116.128ZM347.754 114.892C346.693 114.892 346.173 113.946 346.173 112.749C346.173 111.551 346.693 110.592 347.754 110.592C348.798 110.592 349.318 111.551 349.318 112.749C349.318 113.946 348.798 114.892 347.754 114.892ZM352.191 116H353.734V113.533H354.488L356.282 116H358.148L355.698 112.668L358.123 109.455H356.265L354.296 112.097H353.734V109.455H352.191V116ZM360.51 113.912V109.455H359.023V116H360.613L363.225 111.538V116H364.716V109.455H363.131L360.51 113.912ZM369.198 116.128C370.724 116.128 371.772 115.382 372.045 114.244L370.604 114.082C370.396 114.636 369.884 114.926 369.219 114.926C368.222 114.926 367.562 114.27 367.549 113.149H372.109V112.676C372.109 110.379 370.728 109.369 369.117 109.369C367.242 109.369 366.019 110.746 366.019 112.766C366.019 114.82 367.225 116.128 369.198 116.128ZM367.553 112.109C367.6 111.274 368.218 110.571 369.138 110.571C370.025 110.571 370.621 111.219 370.63 112.109H367.553ZM377.877 109.455H376.39V116H377.877V113.354H380.413V116H381.896V109.455H380.413V112.088H377.877V109.455ZM386.312 116.128C388.229 116.128 389.448 114.777 389.448 112.753C389.448 110.724 388.229 109.369 386.312 109.369C384.394 109.369 383.175 110.724 383.175 112.753C383.175 114.777 384.394 116.128 386.312 116.128ZM386.32 114.892C385.259 114.892 384.739 113.946 384.739 112.749C384.739 111.551 385.259 110.592 386.32 110.592C387.364 110.592 387.884 111.551 387.884 112.749C387.884 113.946 387.364 114.892 386.32 114.892ZM393.613 116.128C395.257 116.128 396.306 115.152 396.417 113.763H394.942C394.81 114.466 394.303 114.871 393.625 114.871C392.662 114.871 392.04 114.065 392.04 112.727C392.04 111.406 392.675 110.614 393.625 110.614C394.367 110.614 394.823 111.091 394.942 111.722H396.417C396.31 110.303 395.202 109.369 393.604 109.369C391.686 109.369 390.476 110.754 390.476 112.753C390.476 114.734 391.657 116.128 393.613 116.128ZM397.683 116H399.226V113.533H399.98L401.774 116H403.641L401.19 112.668L403.615 109.455H401.757L399.788 112.097H399.226V109.455H397.683V116ZM406.002 113.912V109.455H404.515V116H406.105L408.717 111.538V116H410.208V109.455H408.623L406.002 113.912Z" fill="#D8D8D8"/>
<path d="M328.1 141.217C327.832 139.278 326.341 138.153 324.406 138.153C322.126 138.153 320.409 139.815 320.409 142.636C320.409 145.453 322.105 147.119 324.406 147.119C326.481 147.119 327.858 145.777 328.1 144.111L326.507 144.102C326.306 145.125 325.471 145.7 324.427 145.7C323.012 145.7 321.998 144.639 321.998 142.636C321.998 140.668 323.004 139.572 324.431 139.572C325.493 139.572 326.324 140.173 326.507 141.217H328.1ZM329.48 149.455H331.023V145.969H331.087C331.33 146.446 331.837 147.115 332.962 147.115C334.504 147.115 335.659 145.892 335.659 143.736C335.659 141.554 334.47 140.369 332.957 140.369C331.803 140.369 331.321 141.064 331.087 141.537H330.997V140.455H329.48V149.455ZM330.993 143.727C330.993 142.457 331.538 141.635 332.531 141.635C333.558 141.635 334.087 142.509 334.087 143.727C334.087 144.955 333.55 145.849 332.531 145.849C331.547 145.849 330.993 144.997 330.993 143.727ZM339.878 147.128C341.403 147.128 342.452 146.382 342.724 145.244L341.284 145.082C341.075 145.636 340.564 145.926 339.899 145.926C338.902 145.926 338.241 145.27 338.229 144.149H342.788V143.676C342.788 141.379 341.408 140.369 339.797 140.369C337.922 140.369 336.699 141.746 336.699 143.766C336.699 145.82 337.905 147.128 339.878 147.128ZM338.233 143.109C338.28 142.274 338.898 141.571 339.818 141.571C340.705 141.571 341.301 142.219 341.31 143.109H338.233ZM343.514 148.901H345.031V147H349.314V148.901H350.805V145.73H349.791V140.455H345.061L344.873 142.747C344.75 144.213 344.588 145.3 344.034 145.73H343.514V148.901ZM345.619 145.73C346.032 145.121 346.186 144.132 346.297 142.747L346.399 141.699H348.316V145.73H345.619ZM353.444 140.455H351.957V147H353.444V144.354H355.979V147H357.462V140.455H355.979V143.088H353.444V140.455ZM360.51 144.912V140.455H359.023V147H360.613L363.225 142.538V147H364.716V140.455H363.131L360.51 144.912ZM369.198 147.128C370.724 147.128 371.772 146.382 372.045 145.244L370.604 145.082C370.396 145.636 369.884 145.926 369.219 145.926C368.222 145.926 367.562 145.27 367.549 144.149H372.109V143.676C372.109 141.379 370.728 140.369 369.117 140.369C367.242 140.369 366.019 141.746 366.019 143.766C366.019 145.82 367.225 147.128 369.198 147.128ZM367.553 143.109C367.6 142.274 368.218 141.571 369.138 141.571C370.025 141.571 370.621 142.219 370.63 143.109H367.553ZM377.877 140.455H376.39V147H377.877V144.354H380.413V147H381.896V140.455H380.413V143.088H377.877V140.455ZM386.312 147.128C388.229 147.128 389.448 145.777 389.448 143.753C389.448 141.724 388.229 140.369 386.312 140.369C384.394 140.369 383.175 141.724 383.175 143.753C383.175 145.777 384.394 147.128 386.312 147.128ZM386.32 145.892C385.259 145.892 384.739 144.946 384.739 143.749C384.739 142.551 385.259 141.592 386.32 141.592C387.364 141.592 387.884 142.551 387.884 143.749C387.884 144.946 387.364 145.892 386.32 145.892ZM393.613 147.128C395.257 147.128 396.306 146.152 396.417 144.763H394.942C394.81 145.466 394.303 145.871 393.625 145.871C392.662 145.871 392.04 145.065 392.04 143.727C392.04 142.406 392.675 141.614 393.625 141.614C394.367 141.614 394.823 142.091 394.942 142.722H396.417C396.31 141.303 395.202 140.369 393.604 140.369C391.686 140.369 390.476 141.754 390.476 143.753C390.476 145.734 391.657 147.128 393.613 147.128ZM397.683 147H399.226V144.533H399.98L401.774 147H403.641L401.19 143.668L403.615 140.455H401.757L399.788 143.097H399.226V140.455H397.683V147ZM406.002 144.912V140.455H404.515V147H406.105L408.717 142.538V147H410.208V140.455H408.623L406.002 144.912Z" fill="#D8D8D8"/>
<path d="M354.007 169H355.955L352.358 164.253L355.806 160.273H353.858L350.756 163.861H350.36V160.273H348.779V169H350.36V165.186H351.135L354.007 169ZM359.335 169.128C361.253 169.128 362.472 167.777 362.472 165.753C362.472 163.724 361.253 162.369 359.335 162.369C357.418 162.369 356.199 163.724 356.199 165.753C356.199 167.777 357.418 169.128 359.335 169.128ZM359.344 167.892C358.283 167.892 357.763 166.946 357.763 165.749C357.763 164.551 358.283 163.592 359.344 163.592C360.388 163.592 360.908 164.551 360.908 165.749C360.908 166.946 360.388 167.892 359.344 167.892ZM363.781 171.455H365.324V167.969H365.387C365.63 168.446 366.137 169.115 367.262 169.115C368.805 169.115 369.96 167.892 369.96 165.736C369.96 163.554 368.771 162.369 367.258 162.369C366.103 162.369 365.622 163.064 365.387 163.537H365.298V162.455H363.781V171.455ZM365.294 165.727C365.294 164.457 365.839 163.635 366.832 163.635C367.859 163.635 368.387 164.509 368.387 165.727C368.387 166.955 367.85 167.849 366.832 167.849C365.848 167.849 365.294 166.997 365.294 165.727ZM374.136 169.128C376.054 169.128 377.272 167.777 377.272 165.753C377.272 163.724 376.054 162.369 374.136 162.369C372.218 162.369 371 163.724 371 165.753C371 167.777 372.218 169.128 374.136 169.128ZM374.145 167.892C373.083 167.892 372.564 166.946 372.564 165.749C372.564 164.551 373.083 163.592 374.145 163.592C375.189 163.592 375.708 164.551 375.708 165.749C375.708 166.946 375.189 167.892 374.145 167.892ZM377.872 163.72H379.99V169H381.482V163.72H383.599V162.455H377.872V163.72ZM386.315 164.585V162.455H384.828V169H387.802C389.468 169 390.427 168.08 390.431 166.793C390.427 165.472 389.468 164.585 387.802 164.585H386.315ZM391.245 169H392.788V162.455H391.245V169ZM386.315 165.851H387.802C388.471 165.851 388.953 166.247 388.953 166.814C388.953 167.355 388.471 167.734 387.802 167.734H386.315V165.851ZM394.379 162.455V169H402.957V162.455H401.469V167.73H399.411V162.455H397.924V167.73H395.866V162.455H394.379ZM406.002 166.912V162.455H404.515V169H406.105L408.717 164.538V169H410.208V162.455H408.623L406.002 166.912Z" fill="#D8D8D8"/>
<path d="M343.458 196H345.039V192.293H349.083V196H350.669V187.273H349.083V190.967H345.039V187.273H343.458V196ZM355.218 196.128C356.743 196.128 357.792 195.382 358.064 194.244L356.624 194.082C356.415 194.636 355.904 194.926 355.239 194.926C354.242 194.926 353.581 194.27 353.569 193.149H358.128V192.676C358.128 190.379 356.748 189.369 355.137 189.369C353.262 189.369 352.039 190.746 352.039 192.766C352.039 194.82 353.245 196.128 355.218 196.128ZM353.573 192.109C353.62 191.274 354.238 190.571 355.158 190.571C356.044 190.571 356.641 191.219 356.65 192.109H353.573ZM359.433 196H362.604C364.138 196 365.016 195.305 365.016 194.223C365.016 193.307 364.304 192.668 363.277 192.578C364.151 192.416 364.696 191.952 364.696 191.214C364.696 190.111 363.729 189.455 362.182 189.455H359.433V196ZM360.878 194.786V193.162H362.604C363.17 193.162 363.516 193.49 363.516 194.031C363.516 194.5 363.17 194.786 362.604 194.786H360.878ZM360.878 192.165V190.69H362.182C362.825 190.69 363.217 190.963 363.217 191.411C363.217 191.879 362.838 192.165 362.212 192.165H360.878ZM369.186 196.128C370.712 196.128 371.76 195.382 372.033 194.244L370.593 194.082C370.384 194.636 369.873 194.926 369.208 194.926C368.211 194.926 367.55 194.27 367.537 193.149H372.097V192.676C372.097 190.379 370.716 189.369 369.105 189.369C367.23 189.369 366.007 190.746 366.007 192.766C366.007 194.82 367.213 196.128 369.186 196.128ZM367.542 192.109C367.588 191.274 368.206 190.571 369.127 190.571C370.013 190.571 370.61 191.219 370.618 192.109H367.542ZM372.822 197.901H374.339V196H378.622V197.901H380.114V194.73H379.099V189.455H374.369L374.182 191.747C374.058 193.213 373.896 194.3 373.342 194.73H372.822V197.901ZM374.928 194.73C375.341 194.121 375.494 193.132 375.605 191.747L375.707 190.699H377.625V194.73H374.928ZM382.752 193.912V189.455H381.265V196H382.855L385.467 191.538V196H386.958V189.455H385.373L382.752 193.912ZM392.31 194.206L390.418 189.455H388.543V196H390.03V191.589L391.773 196H392.851L394.653 191.543V196H396.128V189.455H394.253L392.31 194.206ZM397.683 196H399.226V193.533H399.98L401.774 196H403.641L401.19 192.668L403.615 189.455H401.757L399.788 192.097H399.226V189.455H397.683V196ZM406.002 193.912V189.455H404.515V196H406.105L408.717 191.538V196H410.208V189.455H408.623L406.002 193.912Z" fill="#497CFF"/>
<path d="M343.458 196H345.039V192.293H349.083V196H350.669V187.273H349.083V190.967H345.039V187.273H343.458V196ZM355.218 196.128C356.743 196.128 357.792 195.382 358.064 194.244L356.624 194.082C356.415 194.636 355.904 194.926 355.239 194.926C354.242 194.926 353.581 194.27 353.569 193.149H358.128V192.676C358.128 190.379 356.748 189.369 355.137 189.369C353.262 189.369 352.039 190.746 352.039 192.766C352.039 194.82 353.245 196.128 355.218 196.128ZM353.573 192.109C353.62 191.274 354.238 190.571 355.158 190.571C356.044 190.571 356.641 191.219 356.65 192.109H353.573ZM359.433 196H362.604C364.138 196 365.016 195.305 365.016 194.223C365.016 193.307 364.304 192.668 363.277 192.578C364.151 192.416 364.696 191.952 364.696 191.214C364.696 190.111 363.729 189.455 362.182 189.455H359.433V196ZM360.878 194.786V193.162H362.604C363.17 193.162 363.516 193.49 363.516 194.031C363.516 194.5 363.17 194.786 362.604 194.786H360.878ZM360.878 192.165V190.69H362.182C362.825 190.69 363.217 190.963 363.217 191.411C363.217 191.879 362.838 192.165 362.212 192.165H360.878ZM369.186 196.128C370.712 196.128 371.76 195.382 372.033 194.244L370.593 194.082C370.384 194.636 369.873 194.926 369.208 194.926C368.211 194.926 367.55 194.27 367.537 193.149H372.097V192.676C372.097 190.379 370.716 189.369 369.105 189.369C367.23 189.369 366.007 190.746 366.007 192.766C366.007 194.82 367.213 196.128 369.186 196.128ZM367.542 192.109C367.588 191.274 368.206 190.571 369.127 190.571C370.013 190.571 370.61 191.219 370.618 192.109H367.542ZM372.822 197.901H374.339V196H378.622V197.901H380.114V194.73H379.099V189.455H374.369L374.182 191.747C374.058 193.213 373.896 194.3 373.342 194.73H372.822V197.901ZM374.928 194.73C375.341 194.121 375.494 193.132 375.605 191.747L375.707 190.699H377.625V194.73H374.928ZM382.752 193.912V189.455H381.265V196H382.855L385.467 191.538V196H386.958V189.455H385.373L382.752 193.912ZM392.31 194.206L390.418 189.455H388.543V196H390.03V191.589L391.773 196H392.851L394.653 191.543V196H396.128V189.455H394.253L392.31 194.206ZM397.683 196H399.226V193.533H399.98L401.774 196H403.641L401.19 192.668L403.615 189.455H401.757L399.788 192.097H399.226V189.455H397.683V196ZM406.002 193.912V189.455H404.515V196H406.105L408.717 191.538V196H410.208V189.455H408.623L406.002 193.912Z" fill="#0253BC"/>
<path d="M343.458 196H345.039V192.293H349.083V196H350.669V187.273H349.083V190.967H345.039V187.273H343.458V196ZM355.218 196.128C356.743 196.128 357.792 195.382 358.064 194.244L356.624 194.082C356.415 194.636 355.904 194.926 355.239 194.926C354.242 194.926 353.581 194.27 353.569 193.149H358.128V192.676C358.128 190.379 356.748 189.369 355.137 189.369C353.262 189.369 352.039 190.746 352.039 192.766C352.039 194.82 353.245 196.128 355.218 196.128ZM353.573 192.109C353.62 191.274 354.238 190.571 355.158 190.571C356.044 190.571 356.641 191.219 356.65 192.109H353.573ZM359.433 196H362.604C364.138 196 365.016 195.305 365.016 194.223C365.016 193.307 364.304 192.668 363.277 192.578C364.151 192.416 364.696 191.952 364.696 191.214C364.696 190.111 363.729 189.455 362.182 189.455H359.433V196ZM360.878 194.786V193.162H362.604C363.17 193.162 363.516 193.49 363.516 194.031C363.516 194.5 363.17 194.786 362.604 194.786H360.878ZM360.878 192.165V190.69H362.182C362.825 190.69 363.217 190.963 363.217 191.411C363.217 191.879 362.838 192.165 362.212 192.165H360.878ZM369.186 196.128C370.712 196.128 371.76 195.382 372.033 194.244L370.593 194.082C370.384 194.636 369.873 194.926 369.208 194.926C368.211 194.926 367.55 194.27 367.537 193.149H372.097V192.676C372.097 190.379 370.716 189.369 369.105 189.369C367.23 189.369 366.007 190.746 366.007 192.766C366.007 194.82 367.213 196.128 369.186 196.128ZM367.542 192.109C367.588 191.274 368.206 190.571 369.127 190.571C370.013 190.571 370.61 191.219 370.618 192.109H367.542ZM372.822 197.901H374.339V196H378.622V197.901H380.114V194.73H379.099V189.455H374.369L374.182 191.747C374.058 193.213 373.896 194.3 373.342 194.73H372.822V197.901ZM374.928 194.73C375.341 194.121 375.494 193.132 375.605 191.747L375.707 190.699H377.625V194.73H374.928ZM382.752 193.912V189.455H381.265V196H382.855L385.467 191.538V196H386.958V189.455H385.373L382.752 193.912ZM392.31 194.206L390.418 189.455H388.543V196H390.03V191.589L391.773 196H392.851L394.653 191.543V196H396.128V189.455H394.253L392.31 194.206ZM397.683 196H399.226V193.533H399.98L401.774 196H403.641L401.19 192.668L403.615 189.455H401.757L399.788 192.097H399.226V189.455H397.683V196ZM406.002 193.912V189.455H404.515V196H406.105L408.717 191.538V196H410.208V189.455H408.623L406.002 193.912Z" fill="#3081EB"/>
<path d="M2 0L417 0" stroke="#D8D8D8" stroke-width="2"/>
<path d="M2 94H417.5" stroke="#D8D8D8"/>
<path d="M2 131H417.5" stroke="#D8D8D8"/>
<path d="M2 155H417.5" stroke="#D8D8D8"/>
<path d="M1 175H416.5" stroke="#D8D8D8"/>
</g>
<defs>
<clipPath id="clip0">
<rect width="417" height="217" fill="white"/>
</clipPath>
</defs>
</svg>
