<svg width="263" height="60" fill="none" xmlns="http://www.w3.org/2000/svg"><path d="M54.083 7.55h-25.14v5.759h8.744c.193 0 .379.075.516.21a.72.72 0 01.216.508v38.825h6.22V14.027c0-.19.076-.373.213-.508a.731.731 0 01.514-.21h8.744l-.027-5.759zm17.957 0h-9.423l-9.765 45.275H63.2l3.022-5.874h-4.794a.794.794 0 01-.613-.274.76.76 0 01-.169-.639l6.055-28.818a.603.603 0 01.214-.35.624.624 0 01.997.35l7.514 35.632h6.368L72.04 7.55zm36.906 0v35.394a.582.582 0 01-.145.33.55.55 0 01-.655.125.567.567 0 01-.25-.255L95.232 7.55h-7.146v45.302h5.572V20.834a.81.81 0 01.181-.509.753.753 0 01.974-.176c.158.093.278.24.34.415l11.489 32.288h7.87V7.55h-5.566zm39.542 9.41V7.55h-16.421a8.82 8.82 0 00-6.185 2.52 8.536 8.536 0 00-2.561 6.086v28.09c0 2.282.921 4.471 2.561 6.085a8.82 8.82 0 006.185 2.52h16.421v-9.41h-6.495v3.069a.694.694 0 01-.211.493.72.72 0 01-.503.203h-6.901a4.381 4.381 0 01-3.063-1.244 4.262 4.262 0 01-.939-1.382 4.193 4.193 0 01-.33-1.63V17.43c0-.559.112-1.113.33-1.63.218-.517.537-.986.939-1.381.403-.396.88-.71 1.406-.923a4.383 4.383 0 011.657-.322h6.901a.72.72 0 01.503.204c.134.13.21.307.211.493v3.068l6.495.022zm15.402 29.593V34.344a.425.425 0 01.125-.305.435.435 0 01.307-.127h12.018v-5.818h-12.018a.426.426 0 01-.432-.4V13.85a.425.425 0 01.125-.305.435.435 0 01.307-.127h15.039l3.103-5.867h-25.167v45.302h25.167l-3.13-5.867H164.3a.432.432 0 01-.41-.432zM25.168 16.823V7.55H8.53c-2.263 0-4.433.861-6.032 2.394C.899 11.477 0 13.556 0 15.724v7.292c0 1.054.292 2.09.846 3a6.103 6.103 0 002.306 2.186l13.573 7.34a3.476 3.476 0 011.32 1.246c.317.52.483 1.113.482 1.715v2.994c0 .614-.126 1.222-.371 1.789a4.664 4.664 0 01-1.057 1.516c-.453.434-.99.778-1.583 1.013a5.063 5.063 0 01-1.866.355H7.307a.806.806 0 01-.557-.22.74.74 0 01-.23-.535V42.3H0v9.293h16.637c2.262 0 4.432-.86 6.032-2.394 1.6-1.533 2.498-3.612 2.498-5.78v-7.313a5.76 5.76 0 00-.836-2.988 6.09 6.09 0 00-2.288-2.181l-13.595-7.35a3.492 3.492 0 01-1.318-1.249 3.303 3.303 0 01-.484-1.714v-2.999c0-.613.125-1.22.37-1.788a4.659 4.659 0 011.055-1.516 4.89 4.89 0 011.58-1.013 5.057 5.057 0 011.866-.356h6.343c.21.001.41.082.558.225.147.142.23.335.23.535v3.11h6.52zm207.631 42.321c16.68 0 30.201-13.24 30.201-29.572S249.479 0 232.799 0c-16.679 0-30.201 13.24-30.201 29.572s13.522 29.572 30.201 29.572z" fill="#141414"/><path d="M242.956 38.742l8.381-8.376a1.136 1.136 0 000-1.615l-8.381-8.366 8.171-8.167a1.139 1.139 0 000-1.615 1.142 1.142 0 00-1.616 0l-8.138 8.183-8.403-8.382a1.147 1.147 0 00-.808-.337 1.138 1.138 0 00-.808.337l-8.371 8.382-8.171-8.167a1.142 1.142 0 00-1.616 1.615l8.171 8.167-8.365 8.36a1.133 1.133 0 00-.249 1.246c.058.138.142.264.249.37l8.382 8.376-8.172 8.156a1.142 1.142 0 001.616 1.615l8.171-8.166 8.387 8.382a1.145 1.145 0 00.808.337 1.14 1.14 0 00.808-.337l8.371-8.399 8.171 8.167a1.145 1.145 0 001.616 0 1.134 1.134 0 00.334-.808 1.13 1.13 0 00-.334-.807l-8.204-8.15zm5.984-9.151l-7.567 7.553-7.601-7.58 7.601-7.58 7.567 7.607zm-16.767-16.786l7.584 7.58-7.584 7.58-7.585-7.58 7.585-7.58zm-16.768 16.759l7.578-7.58 7.584 7.58-7.584 7.58-7.578-7.58zm16.768 16.758l-7.585-7.58 7.585-7.58 7.584 7.58-7.584 7.58z" fill="#fff"/></svg>